<?xml version="1.0" encoding="UTF-8" standalone="no"?>
<!-- Created with Inkscape (http://www.inkscape.org/) -->

<svg
   xmlns:dc="http://purl.org/dc/elements/1.1/"
   xmlns:cc="http://creativecommons.org/ns#"
   xmlns:rdf="http://www.w3.org/1999/02/22-rdf-syntax-ns#"
   xmlns:svg="http://www.w3.org/2000/svg"
   xmlns="http://www.w3.org/2000/svg"
   xmlns:sodipodi="http://sodipodi.sourceforge.net/DTD/sodipodi-0.dtd"
   xmlns:inkscape="http://www.inkscape.org/namespaces/inkscape"
   width="396.68915"
   height="396.6875"
   id="svg2"
   inkscape:label="Pozadí"
   version="1.1"
   inkscape:version="0.48.4 r9939"
   sodipodi:docname="label.svg"
   inkscape:export-filename="/home/churchyard/ownCloud/Škola/semestr/bakalarka/label/label.png"
   inkscape:export-xdpi="226.87885"
   inkscape:export-ydpi="226.87885">
  <defs
     id="defs3" />
  <sodipodi:namedview
     id="base"
     pagecolor="#ffffff"
     bordercolor="#666666"
     borderopacity="1.0"
     inkscape:pageopacity="0.0"
     inkscape:pageshadow="2"
     inkscape:zoom="1.979899"
     inkscape:cx="285.25755"
     inkscape:cy="190.93789"
     inkscape:document-units="px"
     inkscape:current-layer="layer3"
     showgrid="false"
     fit-margin-top="0"
     fit-margin-left="0"
     fit-margin-right="0"
     fit-margin-bottom="0"
     showguides="true"
     inkscape:guide-bbox="true"
     inkscape:window-width="1616"
     inkscape:window-height="1026"
     inkscape:window-x="64"
     inkscape:window-y="0"
     inkscape:window-maximized="1">
    <sodipodi:guide
       orientation="1,0"
       position="65.714286,265"
       id="guide11021" />
    <sodipodi:guide
       orientation="1,0"
       position="329.28571,296.42857"
       id="guide11077" />
  </sodipodi:namedview>
  <metadata
     id="metadata6">
    <rdf:RDF>
      <cc:Work
         rdf:about="">
        <dc:format>image/svg+xml</dc:format>
        <dc:type
           rdf:resource="http://purl.org/dc/dcmitype/StillImage" />
        <dc:title></dc:title>
      </cc:Work>
    </rdf:RDF>
  </metadata>
  <g
     inkscape:groupmode="layer"
     id="layer2"
     inkscape:label="Kruhy"
     transform="translate(-128.08482,-236.875)"
     sodipodi:insensitive="true"
     style="display:none">
    <path
       sodipodi:type="arc"
       style="fill:none;stroke:#000000;stroke-width:1;stroke-linejoin:round;stroke-miterlimit:4;stroke-opacity:1;stroke-dasharray:none;stroke-dashoffset:0"
       id="path10205"
       sodipodi:cx="325"
       sodipodi:cy="435.21933"
       sodipodi:rx="197.85715"
       sodipodi:ry="197.85715"
       d="m 522.85715,435.21933 a 197.85715,197.85715 0 1 1 -5.1e-4,-0.44941 L 325,435.21933 z"
       sodipodi:start="0"
       sodipodi:end="6.2809139"
       transform="translate(1.4285714,0)" />
    <path
       transform="matrix(0.40150699,0,0,0.40150699,195.9388,260.47573)"
       sodipodi:end="6.2809139"
       sodipodi:start="0"
       d="m 522.85715,435.21933 a 197.85715,197.85715 0 1 1 -5.1e-4,-0.44941 L 325,435.21933 z"
       sodipodi:ry="197.85715"
       sodipodi:rx="197.85715"
       sodipodi:cy="435.21933"
       sodipodi:cx="325"
       id="path10207"
       style="fill:none;stroke:#000000;stroke-width:2.49061656;stroke-linejoin:round;stroke-miterlimit:4;stroke-opacity:1;stroke-dasharray:none;stroke-dashoffset:0"
       sodipodi:type="arc" />
  </g>
  <g
     inkscape:groupmode="layer"
     id="layer3"
     inkscape:label="Label"
     transform="translate(-128.08482,-236.875)">
    <text
       xml:space="preserve"
       style="font-size:12px;font-style:normal;font-variant:normal;font-weight:normal;font-stretch:normal;line-height:125%;letter-spacing:0px;word-spacing:0px;fill:#000000;fill-opacity:1;stroke:none;font-family:Linux Libertine O;-inkscape-font-specification:Linux Libertine O"
       x="193.7991"
       y="309.50504"
       id="text10978"
       sodipodi:linespacing="125%"><tspan
         sodipodi:role="line"
         x="193.7991"
         y="309.50504"
         id="tspan10984">Č     P</tspan><tspan
         sodipodi:role="line"
         x="193.7991"
         y="324.50504"
         id="tspan10991">F  </tspan><tspan
         sodipodi:role="line"
         x="193.7991"
         y="339.50504"
         id="tspan10993">K  </tspan></text>
    <text
       sodipodi:linespacing="125%"
       id="text10995"
       y="532.08185"
       x="193.7991"
       style="font-size:12px;font-style:normal;font-variant:normal;font-weight:normal;font-stretch:normal;text-align:start;line-height:125%;letter-spacing:0px;word-spacing:0px;text-anchor:start;fill:#000000;fill-opacity:1;stroke:none;font-family:Linux Libertine O;-inkscape-font-specification:Linux Libertine O"
       xml:space="preserve"><tspan
         id="tspan11001"
         y="532.08185"
         x="193.7991"
         sodipodi:role="line"
         style="font-weight:normal;text-align:start;text-anchor:start">B </tspan><tspan
         y="547.08185"
         x="193.7991"
         sodipodi:role="line"
         style="font-weight:normal;text-align:start;text-anchor:start"
         id="tspan11019">H M</tspan><tspan
         y="562.08185"
         x="193.7991"
         sodipodi:role="line"
         id="tspan11015">  2013/2014</tspan></text>
    <g
       transform="matrix(1.0168237,0,0,-1.0168237,414.63756,469.63663)"
       inkscape:label="cvut-logo-bw"
       id="g11066">
      <g
         transform="scale(0.1,0.1)"
         id="g11068">
        <path
           id="path11070"
           style="fill:none;stroke:#231f20;stroke-width:7.19999981;stroke-linecap:butt;stroke-linejoin:miter;stroke-miterlimit:2.61310005;stroke-opacity:1;stroke-dasharray:none"
           d="m 664.234,648.602 c 0,-4.321 1.442,-19.438 -2.16,-26.641 -3.597,-7.918 -11.519,-10.801 -23.039,-17.277 27.36,-44.641 -6.48,-53.282 -56.16,-64.801 -49.68,-10.801 -85.68,-14.403 -113.758,-42.481 -27.359,-28.082 -24.48,-30.961 -29.519,-60.48 -0.723,-44.641 13.679,-86.399 59.757,-100.078 15.84,-5.043 30.243,-10.801 45.36,-14.403 39.601,-9.359 64.082,-17.277 79.922,-46.8 15.121,-29.52 9.359,-22.321 20.16,-49.68 10.801,-27.359 26.641,-61.199 54,-84.238 43.199,-4.321 17.281,6.48 77.039,-0.719 l 5.039,-9.363 c 15.121,-66.2387 -48.238,-57.598 -80.641,-36.0004 -13.679,10.8004 -36,31.6794 -55.437,20.1604 -20.879,-14.399 -26.641,-28.7971 -34.563,-55.4377 10.082,9.3594 14.403,9.3594 20.161,10.7969 m 15.121,153.3628 c -35.282,1.438 -88.559,21.598 -118.801,15.84 -9.36,-1.441 -12.238,-7.922 -15.117,-11.519 -3.602,-35.282 38.879,-25.203 51.84,-25.203 -10.083,-20.161 -12.961,-20.879 -32.403,-33.84 -3.597,-50.399 7.199,-128.8791 -51.84,-143.2776 2.879,7.918 2.879,12.9571 -2.16,20.1602 -23.039,9.3594 -36.719,-12.2422 -61.199,-18 -20.16,4.3203 -25.199,10.7969 -30.238,12.957 -25.922,21.6016 -29.52,46.0821 -71.282,38.1602 5.039,15.1211 18,34.5622 18.719,35.2812 27.36,27.359 30.961,18.719 60.481,-16.5586 m 88.558,246.2386 c -10.078,-8.641 -24.476,-18.719 -35.277,-23.758 -10.082,37.437 -55.442,20.879 -80.641,2.879 -14.398,-10.082 -23.761,-41.762 -33.84,-43.922 l -8.64,-2.16 c 7.199,25.922 -12.961,27.363 -37.442,25.203 -19.437,6.476 -42.476,23.039 -48.238,44.637 -7.922,18 -12.961,28.8 -28.801,14.402 4.321,22.32 15.84,39.598 38.879,33.84 10.082,-2.879 12.961,-16.563 18.004,-25.922 m 319.68,171.363 c -8.641,2.156 -22.32,4.317 -30.242,5.039 -8.641,1.438 -17.282,-0.722 -25.2,-1.441 l -4.32,28.082 c 20.879,-5.762 40.32,-7.922 49.68,6.476 5.762,7.922 3.601,19.442 -0.719,26.641 -9.359,15.84 -43.199,14.402 -55.441,-0.719 l -5.039,38.879 51.121,2.883 43.918,0.719 c 19.441,0 38.879,0.719 61.922,0.719 83.519,-20.879 90,-144 43.917,-201.598 -14.398,-18 -24.48,-33.121 -46.8,-49.684 -36.719,-26.636 -88.559,-25.199 -93.598,-81.359 m 98.641,84.242 c -10.801,-23.039 -10.082,-68.402 36,-81.359 37.437,-2.883 62.636,10.078 97.199,21.597 -12.242,-0.718 -58.32,5.762 -69.84,42.481 -18,59.762 20.879,90 67.68,133.922 l 12.961,9.359 c 38.16,25.918 62.636,64.801 35.277,100.801 21.602,-1.442 29.52,-7.922 40.32,-21.602 3.602,-5.761 6.481,-12.961 -4.32,-20.16 -8.641,-25.922 -49.68,-64.801 -63.359,-74.16 -25.2,-21.602 -43.2,-33.121 -59.758,-55.441 -39.602,-55.438 -11.524,-99.36 56.16,-100.797 42.477,-0.723 74.879,30.957 56.156,77.039 -10.797,29.519 -36,52.558 -56.156,75.597 m -2.883,20.883 c -30.961,37.438 -33.84,55.438 -20.879,97.918 -24.48,-2.879 -32.398,-4.32 -41.039,-24.48 -3.601,-7.918 2.879,-20.16 12.238,-23.758 5.762,-15.84 29.52,-48.242 37.442,-59.039 M 272.555,621.961 c -2.879,7.922 -2.16,14.402 -8.637,18 -20.16,8.641 -50.402,-12.957 -64.082,-26.641 10.801,2.16 12.238,-1.437 15.84,-8.636 m 48.961,-20.883 c -3.602,46.082 -18.723,49.679 -48.242,20.16 -10.797,-11.52 -13.68,-17.277 -13.68,-25.918 41.762,22.32 26.64,-41.039 43.199,-72 -3.598,12.961 2.883,-4.32 3.602,-6.481 21.601,-2.878 32.402,-13.679 25.922,-32.398 -2.161,-5.043 -8.641,-7.203 -16.563,-2.883 4.32,-7.199 5.043,-11.519 19.441,-11.519 41.758,0.718 105.122,18 120.239,-35.282 m 208.082,230.403 -2.16,-5.762 c 0,-0.719 -34.563,-28.801 -36,-16.559 -0.719,10.801 0,14.399 -0.719,21.602 m -4.32,-0.723 -5.043,30.243 15.121,0 c 4.32,-3.602 6.48,-13.68 16.558,-13.68 10.801,0.719 12.961,9.359 20.16,13.68 l 15.121,0 c 10.801,-7.204 10.083,-13.68 19.442,-13.68 10.801,0 10.801,8.637 17.277,13.68 l 15.844,0 -3.602,-28.801 m -242.64,-43.922 c 1.441,-14.399 0,-18.719 8.64,-23.039 5.039,-2.16 36,2.16 62.641,7.199 28.078,4.32 52.559,5.762 75.598,2.16 M 233.676,558.602 c -17.281,-12.239 -27.36,-13.68 -41.758,-10.801 -59.043,10.801 -51.121,96.48 7.918,90 8.641,-0.719 12.238,-3.598 18.719,-9.36 m 519.121,-46.8 c -3.602,-105.84 -72.719,-141.118 -155.52,-176.399 -25.922,-10.801 -38.16,-59.762 -9.359,-87.84 m -335.52,214.559 c -9.359,-7.199 -25.922,-12.957 -46.8,-10.078 -37.442,5.758 -61.2,30.238 -61.2,74.879 2.879,48.961 41.758,77.039 89.278,62.64 l 10.8,-7.199 M 217.836,412.441 c -17.281,12.243 -12.238,7.922 -10.078,9.36 96.476,56.883 51.117,-48.239 89.277,-69.117 27.36,0 45.36,23.757 65.52,39.597 26.64,19.442 46.082,30.242 77.043,43.922 m -177.84,3.598 -10.082,59.043 m 11.519,-92.883 c -3.597,25.199 -34.558,14.402 -42.48,7.922 -7.918,-5.762 -13.68,-12.961 -20.16,-20.879 2.883,-2.16 12.961,7.918 18.722,-4.32 m -10.082,33.839 -16.558,99.36 M 539.676,324.602 C 505.117,313.801 463.355,303.723 434.555,282.844 411.516,249 451.117,195.004 460.477,161.883 c 2.16,-32.403 12.238,-65.5197 -26.641,-72.0002 -30.238,7.918 -27.359,39.5972 -43.922,61.1992 -37.437,46.801 -86.398,-7.922 -99.359,-19.441 3.601,1.441 17.281,3.601 20.16,4.32 2.883,0.723 7.922,0 11.519,-0.719 m -11.519,-0.719 2.16,-9.359 m 235.441,196.559 c -20.878,20.16 -33.839,35.281 -30.242,75.597 11.524,28.082 14.403,33.84 49.684,50.403 35.277,15.839 133.918,48.238 146.16,113.039 2.16,18 9.359,39.601 -6.48,68.402 M 469.836,498.844 c -33.121,9.359 -69.84,11.519 -103.68,12.957 -20.879,2.883 -66.961,7.922 -74.16,33.121 -3.601,33.121 0,60.48 -1.441,95.039 -1.438,24.48 -56.16,25.203 -73.438,2.16 7.199,-4.32 5.758,-2.16 9.36,-8.641 M 641.195,239.641 c -9.359,0 -36,-1.438 -36.718,9.359 -4.321,38.883 -11.52,38.164 -33.122,54.004 l 2.879,11.519 M 308.555,148.922 284.074,302.281 m 96.481,-160.558 c -15.117,20.16 -38.16,14.398 -53.278,-2.161 -0.722,-1.441 -5.761,-6.48 -12.961,-13.679 -6.48,-6.481 -4.32,-2.879 -12.242,-15.84 9.364,1.437 16.563,5.039 28.801,1.437 m 360,-24.4761 c -12.238,3.5977 -16.559,10.0781 -28.078,13.6801 -15.121,4.32 -28.082,-15.8402 -32.402,-33.1215 -2.161,-7.9219 -2.879,-18.7187 -3.598,-27.3594 13.68,8.6407 18.719,6.4805 25.199,4.3203 M 315.035,111.48 329.438,22.2031 c -12.243,20.1602 -3.602,16.5586 -30.961,42.4805 l -42.481,235.4374 -30.238,22.32 -6.481,45.36 M 717.516,66.8438 c -10.078,1.4374 -17.282,4.3164 -28.078,8.6367 -40.321,16.5625 -36,-30.2383 -37.442,-56.1602 6.481,14.4024 40.32,16.5625 62.641,-4.3164 11.519,-4.3203 20.16,-2.8828 30.961,-5.04296 7.199,0.72266 17.277,-0.71875 23.757,2.88286 11.52,5.7578 35.282,41.7578 49.68,8.6367 2.16,-3.5977 -1.437,-9.3594 -0.719,-10.7969 48.961,3.5976 25.2,163.4374 25.2,164.1604 23.039,21.597 18,18.718 22.32,41.758 -42.481,-2.879 -86.398,-4.321 -127.441,5.039 -23.758,20.16 -2.879,68.402 -23.758,79.203 9.359,0.718 18,0 27.359,2.16 36,7.918 158.399,36 156.961,99.359 -0.723,37.438 -28.082,74.879 -65.519,113.758 M 10.4766,22.9219 C 57.2773,189.961 104.797,357.004 151.598,524.043 l 29.519,-14.402 9.36,-45.36 -38.161,-140.398 -40.32,-25.199 C 90.3945,220.922 68.7969,142.441 47.1953,64.6836 13.3555,30.8438 21.2773,38.7617 10.4766,22.9219 z M 516.637,331.082 c -0.723,0 -22.321,11.52 -30.961,41.039 -14.399,42.481 -9.36,85.68 55.441,113.762 54.719,23.758 123.84,20.879 148.321,87.84 7.199,21.597 2.16,59.039 -16.563,74.16"
           inkscape:connector-curvature="0" />
      </g>
    </g>
  </g>
</svg>
