<?xml version="1.0" encoding="UTF-8" standalone="no"?>
<svg
   xmlns:dc="http://purl.org/dc/elements/1.1/"
   xmlns:cc="http://creativecommons.org/ns#"
   xmlns:rdf="http://www.w3.org/1999/02/22-rdf-syntax-ns#"
   xmlns:svg="http://www.w3.org/2000/svg"
   xmlns="http://www.w3.org/2000/svg"
   xmlns:sodipodi="http://sodipodi.sourceforge.net/DTD/sodipodi-0.dtd"
   xmlns:inkscape="http://www.inkscape.org/namespaces/inkscape"
   width="423.41458"
   height="500.82413"
   viewBox="340 -575 237.99819 282.35482"
   id="svg2"
   version="1.1"
   inkscape:version="0.48.4 r9939"
   sodipodi:docname="logic.svg">
  <metadata
     id="metadata258">
    <rdf:RDF>
      <cc:Work
         rdf:about="">
        <dc:format>image/svg+xml</dc:format>
        <dc:type
           rdf:resource="http://purl.org/dc/dcmitype/StillImage" />
      </cc:Work>
    </rdf:RDF>
  </metadata>
  <defs
     id="defs256" />
  <sodipodi:namedview
     pagecolor="#ffffff"
     bordercolor="#666666"
     borderopacity="1"
     objecttolerance="10"
     gridtolerance="10"
     guidetolerance="10"
     inkscape:pageopacity="0"
     inkscape:pageshadow="2"
     inkscape:window-width="1616"
     inkscape:window-height="1026"
     id="namedview254"
     showgrid="false"
     fit-margin-top="2"
     fit-margin-left="2"
     fit-margin-right="2"
     fit-margin-bottom="2"
     inkscape:zoom="1.2537307"
     inkscape:cx="72.871538"
     inkscape:cy="304.51069"
     inkscape:window-x="64"
     inkscape:window-y="0"
     inkscape:window-maximized="1"
     inkscape:current-layer="svg2" />
  <g
     id="g10445"
     transform="matrix(1.126609,0,0,1.126609,-42.053015,73.927119)">
    <g
       transform="matrix(0.1464239,0,0,0.1464239,289.93566,-490.90235)"
       id="g4">
      <rect
         id="rect6"
         height="80"
         width="284"
         y="874.09198"
         x="1488.96"
         style="fill:#ffffff" />
      <rect
         id="rect8"
         height="80"
         width="284"
         y="874.09198"
         x="1488.96"
         style="fill:none;stroke:#000000;stroke-width:2" />
      <text
         id="text10"
         y="921.703"
         x="1630.96"
         style="font-size:28.22220039px;font-style:normal;font-weight:normal;text-anchor:middle;fill:#000000;font-family:Linux Libertine Display O"
         font-size="28.2222">
        <tspan
           id="tspan12"
           y="921.703"
           x="1630.96">zobrazení chyby</tspan>
      </text>
    </g>
    <g
       transform="matrix(0.1464239,0,0,0.1464239,289.93566,-490.90235)"
       id="g14">
      <rect
         id="rect16"
         height="80"
         width="284"
         y="874.09198"
         x="694.02197"
         style="fill:#ffffff" />
      <rect
         id="rect18"
         height="80"
         width="284"
         y="874.09198"
         x="694.02197"
         style="fill:none;stroke:#000000;stroke-width:2" />
      <text
         id="text20"
         y="921.703"
         x="836.02197"
         style="font-size:28.22220039px;font-style:normal;font-weight:normal;text-anchor:middle;fill:#000000;font-family:Linux Libertine Display O"
         font-size="28.2222">
        <tspan
           id="tspan22"
           y="921.703"
           x="836.02197">uložení do databáze</tspan>
      </text>
    </g>
    <g
       transform="matrix(0.1464239,0,0,0.1464239,289.93566,-490.90235)"
       id="g24">
      <polygon
         id="polygon26"
         points="341.557,-72.732 508.52,-187.22 675.484,-72.732 508.52,41.7563 "
         style="fill:#ffffff" />
      <polygon
         id="polygon28"
         points="341.557,-72.732 508.52,-187.22 675.484,-72.732 508.52,41.7563 "
         style="fill:none;stroke:#000000;stroke-width:2" />
      <text
         id="text30"
         y="-82.759804"
         x="508.51999"
         style="font-size:28.22220039px;font-style:normal;font-weight:normal;text-anchor:middle;fill:#000000;font-family:Linux Libertine Display O"
         font-size="28.2222">
        <tspan
           id="tspan32"
           y="-82.759804"
           x="508.51999">neeviduje se dap</tspan>
        <tspan
           id="tspan34"
           y="-47.481998"
           x="508.51999">stejného jména</tspan>
      </text>
    </g>
    <g
       transform="matrix(0.1464239,0,0,0.1464239,289.93566,-490.90235)"
       id="g36">
      <polygon
         id="polygon38"
         points="635.18,232.899 836.741,86.5386 1038.3,232.899 836.741,379.259 "
         style="fill:#ffffff" />
      <polygon
         id="polygon40"
         points="635.18,232.899 836.741,86.5386 1038.3,232.899 836.741,379.259 "
         style="fill:none;stroke:#000000;stroke-width:2" />
      <text
         id="text42"
         y="205.23199"
         x="836.74103"
         style="font-size:28.22220039px;font-style:normal;font-weight:normal;text-anchor:middle;fill:#000000;font-family:Linux Libertine Display O"
         font-size="28.2222">
        <tspan
           id="tspan44"
           y="205.23199"
           x="836.74103">uživatel</tspan>
        <tspan
           id="tspan46"
           y="240.50999"
           x="836.74103">je vlastníkem dapu</tspan>
        <tspan
           id="tspan48"
           y="275.78799"
           x="836.74103">stejného jména</tspan>
      </text>
    </g>
    <g
       transform="matrix(0.1464239,0,0,0.1464239,289.93566,-490.90235)"
       id="g50">
      <polygon
         id="polygon52"
         points="1157.19,232.111 1358.74,86.9077 1560.29,232.111 1358.74,377.315 "
         style="fill:#ffffff" />
      <polygon
         id="polygon54"
         points="1157.19,232.111 1358.74,86.9077 1560.29,232.111 1358.74,377.315 "
         style="fill:none;stroke:#000000;stroke-width:2" />
      <text
         id="text56"
         y="204.44501"
         x="1358.74"
         style="font-size:28.22220039px;font-style:normal;font-weight:normal;text-anchor:middle;fill:#000000;font-family:Linux Libertine Display O"
         font-size="28.2222">
        <tspan
           id="tspan58"
           y="204.44501"
           x="1358.74">uživatel</tspan>
        <tspan
           id="tspan60"
           y="239.722"
           x="1358.74">je spoluvlastníkem</tspan>
        <tspan
           id="tspan62"
           y="275"
           x="1358.74">dapu s. j.</tspan>
      </text>
    </g>
    <g
       transform="matrix(0.1464239,0,0,0.1464239,289.93566,-490.90235)"
       id="g64">
      <polygon
         id="polygon66"
         points="342.939,-355.768 508.521,-463.528 674.104,-355.768 508.521,-248.007 "
         style="fill:#ffffff" />
      <polygon
         id="polygon68"
         points="342.939,-355.768 508.521,-463.528 674.104,-355.768 508.521,-248.007 "
         style="fill:none;stroke:#000000;stroke-width:2" />
      <text
         id="text70"
         y="-365.79599"
         x="508.521"
         style="font-size:28.22220039px;font-style:normal;font-weight:normal;text-anchor:middle;fill:#000000;font-family:Linux Libertine Display O"
         font-size="28.2222">
        <tspan
           id="tspan72"
           y="-365.79599"
           x="508.521">dap neobsahuje</tspan>
        <tspan
           id="tspan74"
           y="-330.51801"
           x="508.521">chyby</tspan>
      </text>
    </g>
    <g
       transform="matrix(0.1464239,0,0,0.1464239,289.93566,-490.90235)"
       id="g76">
      <path
         id="path78"
         d="m 455.784,-573.34 105.476,0 c 14.563,0 26.369,12.483 26.369,27.882 0,15.399 -11.806,27.882 -26.369,27.882 l -105.476,0 c -14.564,0 -26.369,-12.483 -26.369,-27.882 0,-15.399 11.805,-27.882 26.369,-27.882 z"
         style="fill:#ffffff"
         inkscape:connector-curvature="0" />
      <path
         id="path80"
         d="m 455.784,-573.34 105.476,0 c 14.563,0 26.369,12.483 26.369,27.882 0,15.399 -11.806,27.882 -26.369,27.882 l -105.476,0 c -14.564,0 -26.369,-12.483 -26.369,-27.882 0,-15.399 11.805,-27.882 26.369,-27.882"
         style="fill:none;stroke:#000000;stroke-width:2"
         inkscape:connector-curvature="0" />
      <text
         id="text82"
         y="-536.63898"
         x="508.522"
         style="font-size:28.22220039px;font-style:normal;font-weight:normal;text-anchor:middle;fill:#000000;font-family:Linux Libertine Display O"
         font-size="28.2222">
        <tspan
           id="tspan84"
           y="-536.63898"
           x="508.522">start</tspan>
      </text>
    </g>
    <g
       transform="matrix(0.1464239,0,0,0.1464239,289.93566,-490.90235)"
       id="g86">
      <path
         id="path88"
         d="m 782.852,1066.86 105.476,0 c 14.563,0 26.369,12.48 26.369,27.88 0,15.4 -11.806,27.88 -26.369,27.88 l -105.476,0 c -14.563,0 -26.369,-12.48 -26.369,-27.88 0,-15.4 11.806,-27.88 26.369,-27.88 z"
         style="fill:#ffffff"
         inkscape:connector-curvature="0" />
      <path
         id="path90"
         d="m 782.852,1066.86 105.476,0 c 14.563,0 26.369,12.48 26.369,27.88 0,15.4 -11.806,27.88 -26.369,27.88 l -105.476,0 c -14.563,0 -26.369,-12.48 -26.369,-27.88 0,-15.4 11.806,-27.88 26.369,-27.88"
         style="fill:none;stroke:#000000;stroke-width:2"
         inkscape:connector-curvature="0" />
      <text
         id="text92"
         y="1103.5601"
         x="835.59003"
         style="font-size:28.22220039px;font-style:normal;font-weight:normal;text-anchor:middle;fill:#000000;font-family:Linux Libertine Display O"
         font-size="28.2222">
        <tspan
           id="tspan94"
           y="1103.5601"
           x="835.59003">konec</tspan>
      </text>
    </g>
    <g
       transform="matrix(0.1464239,0,0,0.1464239,289.93566,-490.90235)"
       id="g112">
      <polyline
         id="polyline114"
         points="508.52,41.7563 508.52,831.678 825.313,831.678 "
         style="fill:none;stroke:#000000;stroke-width:2" />
      <polygon
         id="polygon116"
         points="822.813,826.678 832.813,831.678 822.813,836.678 825.313,831.678 "
         style="fill:#000000" />
      <polygon
         id="polygon118"
         points="822.813,826.678 832.813,831.678 822.813,836.678 825.313,831.678 "
         style="fill:none;stroke:#000000;stroke-width:2" />
    </g>
    <g
       transform="matrix(0.1464239,0,0,0.1464239,289.93566,-490.90235)"
       id="g120">
      <polyline
         id="polyline122"
         points="1560.29,232.111 1560.29,232.256 1621.5,232.256 "
         style="fill:none;stroke:#000000;stroke-width:2" />
      <polygon
         id="polygon124"
         points="1619,227.256 1629,232.256 1619,237.256 1621.5,232.256 "
         style="fill:#000000" />
      <polygon
         id="polygon126"
         points="1619,227.256 1629,232.256 1619,237.256 1621.5,232.256 "
         style="fill:none;stroke:#000000;stroke-width:2" />
    </g>
    <g
       transform="matrix(0.1464239,0,0,0.1464239,289.93566,-490.90235)"
       id="g128">
      <polyline
         id="polyline130"
         points="836.022,954.092 835.59,954.092 835.59,1057.12 "
         style="fill:none;stroke:#000000;stroke-width:2" />
      <polygon
         id="polygon132"
         points="840.59,1054.62 835.59,1064.62 830.59,1054.62 835.59,1057.12 "
         style="fill:#000000" />
      <polygon
         id="polygon134"
         points="840.59,1054.62 835.59,1064.62 830.59,1054.62 835.59,1057.12 "
         style="fill:none;stroke:#000000;stroke-width:2" />
    </g>
    <g
       id="g11293">
      <polyline
         id="polyline138"
         points="675.484,-72.732 675.484,-73.855 836.741,-73.855 836.741,76.8025 "
         style="fill:none;stroke:#000000;stroke-width:2"
         transform="matrix(0.1464239,0,0,0.1464239,289.93566,-490.90235)" />
      <polygon
         id="polygon140"
         points="831.741,74.3025 836.741,76.8025 841.741,74.3025 836.741,84.3025 "
         style="fill:#000000"
         transform="matrix(0.1464239,0,0,0.1464239,289.93566,-490.90235)" />
      <polygon
         id="polygon142"
         points="831.741,74.3025 836.741,76.8025 841.741,74.3025 836.741,84.3025 "
         style="fill:none;stroke:#000000;stroke-width:2"
         transform="matrix(0.1464239,0,0,0.1464239,289.93566,-490.90235)" />
    </g>
    <g
       transform="matrix(0.1464239,0,0,0.1464239,289.93566,-490.90235)"
       id="g144">
      <polyline
         id="polyline146"
         points="674.104,-355.768 674.104,-356.29 1630.96,-356.29 1630.96,864.356 "
         style="fill:none;stroke:#000000;stroke-width:2" />
      <polygon
         id="polygon148"
         points="1635.96,861.856 1630.96,871.856 1625.96,861.856 1630.96,864.356 "
         style="fill:#000000" />
      <polygon
         id="polygon150"
         points="1635.96,861.856 1630.96,871.856 1625.96,861.856 1630.96,864.356 "
         style="fill:none;stroke:#000000;stroke-width:2" />
    </g>
    <text
       id="text152"
       y="-522.39404"
       x="366.97482"
       style="font-size:4.1324048px;font-style:normal;font-weight:normal;text-anchor:start;fill:#000000;font-family:Linux Libertine Display O"
       font-size="28.2222">
      <tspan
         id="tspan154"
         y="-522.39404"
         x="366.97482">ano</tspan>
    </text>
    <text
       id="text156"
       y="-430.80267"
       x="414.83026"
       style="font-size:4.1324048px;font-style:normal;font-weight:normal;text-anchor:start;fill:#000000;font-family:Linux Libertine Display O"
       font-size="28.2222">
      <tspan
         id="tspan158"
         y="-430.80267"
         x="414.83026">ano</tspan>
    </text>
    <text
       id="text160"
       y="-481.58768"
       x="366.97482"
       style="font-size:4.1324048px;font-style:normal;font-weight:normal;text-anchor:start;fill:#000000;font-family:Linux Libertine Display O"
       font-size="28.2222">
      <tspan
         id="tspan162"
         y="-481.58768"
         x="366.97482">ano</tspan>
    </text>
    <text
       id="text164"
       y="-371.14841"
       x="414.83026"
       style="font-size:4.1324048px;font-style:normal;font-weight:normal;text-anchor:start;fill:#000000;font-family:Linux Libertine Display O"
       font-size="28.2222">
      <tspan
         id="tspan166"
         y="-371.14841"
         x="414.83026">ano</tspan>
    </text>
    <text
       id="text168"
       y="-539.16455"
       x="391.86896"
       style="font-size:4.1324048px;font-style:normal;font-weight:normal;text-anchor:start;fill:#000000;font-family:Linux Libertine Display O"
       font-size="28.2222">
      <tspan
         id="tspan170"
         y="-539.16455"
         x="391.86896">ne</tspan>
    </text>
    <text
       id="text172"
       y="-497.6615"
       x="391.9281"
       style="font-size:4.1324048px;font-style:normal;font-weight:normal;text-anchor:start;fill:#000000;font-family:Linux Libertine Display O"
       font-size="28.2222">
      <tspan
         id="tspan174"
         y="-497.6615"
         x="391.9281">ne</tspan>
    </text>
    <text
       id="text176"
       y="-392.21558"
       x="449.33124"
       style="font-size:4.1324048px;font-style:normal;font-weight:normal;text-anchor:start;fill:#000000;font-family:Linux Libertine Display O"
       font-size="28.2222">
      <tspan
         id="tspan178"
         y="-392.21558"
         x="449.33124">ne</tspan>
    </text>
    <g
       transform="matrix(0.1464239,0,0,0.1464239,289.93566,-490.90235)"
       id="g184">
      <polygon
         id="polygon186"
         points="637.87,643.364 836.999,505.958 1036.13,643.364 836.999,780.771 "
         style="fill:#ffffff" />
      <polygon
         id="polygon188"
         points="637.87,643.364 836.999,505.958 1036.13,643.364 836.999,780.771 "
         style="fill:none;stroke:#000000;stroke-width:2" />
      <text
         id="text190"
         y="615.698"
         x="836.99902"
         style="font-size:28.22220039px;font-style:normal;font-weight:normal;text-anchor:middle;fill:#000000;font-family:Linux Libertine Display O"
         font-size="28.2222">
        <tspan
           id="tspan192"
           y="615.698"
           x="836.99902">jedná se o novější</tspan>
        <tspan
           id="tspan194"
           y="650.97601"
           x="836.99902">verzi dapu</tspan>
        <tspan
           id="tspan196"
           y="686.25299"
           x="836.99902">než je k dispozici</tspan>
      </text>
    </g>
    <g
       transform="matrix(0.1464239,0,0,0.1464239,289.93566,-490.90235)"
       id="g198">
      <polyline
         id="polyline200"
         points="836.999,780.771 836.022,780.771 836.022,864.356 "
         style="fill:none;stroke:#000000;stroke-width:2" />
      <polygon
         id="polygon202"
         points="841.022,861.856 836.022,871.856 831.022,861.856 836.022,864.356 "
         style="fill:#000000" />
      <polygon
         id="polygon204"
         points="841.022,861.856 836.022,871.856 831.022,861.856 836.022,864.356 "
         style="fill:none;stroke:#000000;stroke-width:2" />
    </g>
    <g
       transform="matrix(0.1464239,0,0,0.1464239,289.93566,-490.90235)"
       id="g206">
      <polyline
         id="polyline208"
         points="1036.13,643.364 1036.13,643.318 1624,643.318 "
         style="fill:none;stroke:#000000;stroke-width:2" />
      <polygon
         id="polygon210"
         points="1621.5,638.318 1631.5,643.318 1621.5,648.318 1624,643.318 "
         style="fill:#000000" />
      <polygon
         id="polygon212"
         points="1621.5,638.318 1631.5,643.318 1621.5,648.318 1624,643.318 "
         style="fill:none;stroke:#000000;stroke-width:2" />
    </g>
    <text
       id="text222"
       y="-453.40552"
       x="521.1507"
       style="font-size:4.1324048px;font-style:normal;font-weight:normal;text-anchor:start;fill:#000000;font-family:Linux Libertine Display O"
       font-size="28.2222">
      <tspan
         id="tspan224"
         y="-453.40552"
         x="521.1507">ne</tspan>
    </text>
    <g
       transform="matrix(0.1464239,0,0,0.1464239,289.93566,-490.90235)"
       id="g226">
      <polyline
         id="polyline228"
         points="836.741,379.259 836.741,404.648 836.999,404.648 836.999,496.222 "
         style="fill:none;stroke:#000000;stroke-width:2" />
      <polygon
         id="polygon230"
         points="841.999,493.722 836.999,503.722 831.999,493.722 836.999,496.222 "
         style="fill:#000000" />
      <polygon
         id="polygon232"
         points="841.999,493.722 836.999,503.722 831.999,493.722 836.999,496.222 "
         style="fill:none;stroke:#000000;stroke-width:2" />
    </g>
    <g
       transform="matrix(0.1464239,0,0,0.1464239,289.93566,-490.90235)"
       id="g234">
      <polyline
         id="polyline236"
         points="1358.74,377.315 1358.74,471.056 846.698,471.056 "
         style="fill:none;stroke:#000000;stroke-width:2" />
      <polygon
         id="polygon238"
         points="849.198,476.056 839.198,471.056 849.198,466.056 846.698,471.056 "
         style="fill:#000000" />
      <polygon
         id="polygon240"
         points="849.198,476.056 839.198,471.056 849.198,466.056 846.698,471.056 "
         style="fill:none;stroke:#000000;stroke-width:2" />
    </g>
    <text
       id="text242"
       y="-430.80267"
       x="490.51004"
       style="font-size:4.1324048px;font-style:normal;font-weight:normal;text-anchor:start;fill:#000000;font-family:Linux Libertine Display O"
       font-size="28.2222">
      <tspan
         id="tspan244"
         y="-430.80267"
         x="490.51004">ano</tspan>
    </text>
    <g
       transform="matrix(0.1464239,0,0,0.1464239,289.93566,-490.90235)"
       id="g246">
      <polyline
         id="polyline248"
         points="1630.96,954.092 1630.96,1030.93 845.669,1030.93 "
         style="fill:none;stroke:#000000;stroke-width:2" />
      <polygon
         id="polygon250"
         points="848.169,1035.93 838.169,1030.93 848.169,1025.93 845.669,1030.93 "
         style="fill:#000000" />
      <polygon
         id="polygon252"
         points="848.169,1035.93 838.169,1030.93 848.169,1025.93 845.669,1030.93 "
         style="fill:none;stroke:#000000;stroke-width:2" />
    </g>
    <g
       id="g10432">
      <text
         font-size="28.2222"
         style="font-size:4.1324048px;font-style:normal;font-weight:normal;text-anchor:start;fill:#000000;font-family:Linux Libertine Display O"
         x="449.33124"
         y="-453.40552"
         id="text180">
        <tspan
           x="449.33124"
           y="-453.40552"
           id="tspan182">ne</tspan>
      </text>
      <polygon
         id="polygon218"
         points="1147.19,229.347 1157.19,234.347 1147.19,239.347 1149.69,234.347 "
         style="fill:#000000"
         transform="matrix(0.1464239,0,0,0.1464239,289.93566,-491.23028)" />
      <polygon
         id="polygon220"
         points="1147.19,239.347 1149.69,234.347 1147.19,229.347 1157.19,234.347 "
         style="fill:none;stroke:#000000;stroke-width:2"
         transform="matrix(0.1464239,0,0,0.1464239,289.93566,-491.23028)" />
      <path
         style="fill:none;stroke:#000000;stroke-width:0.29022411;stroke-linecap:butt;stroke-linejoin:miter;stroke-miterlimit:4;stroke-opacity:1;stroke-dasharray:none"
         d="m 441.99239,-456.82416 16.87484,-0.16136"
         id="path10518"
         inkscape:connector-curvature="0" />
    </g>
    <g
       id="g10439">
      <g
         id="g10397"
         transform="matrix(0,1,-1,0,-194.38989,-923.60765)">
        <polygon
           transform="matrix(0.1464239,0,0,0.1464239,289.93566,-490.90235)"
           style="fill:#000000"
           points="510.757,-463.528 500.757,-458.528 503.257,-463.528 500.757,-468.528 "
           id="polygon100" />
        <polygon
           transform="matrix(0.1464239,0,0,0.1464239,289.93566,-490.90235)"
           style="fill:none;stroke:#000000;stroke-width:2"
           points="510.757,-463.528 500.757,-458.528 503.257,-463.528 500.757,-468.528 "
           id="polygon102" />
      </g>
      <path
         inkscape:connector-curvature="0"
         id="path10404-6"
         d="m 364.38206,-566.7249 0.0161,7.43382"
         style="fill:none;stroke:#000000;stroke-width:0.23446035;stroke-linecap:butt;stroke-linejoin:miter;stroke-miterlimit:4;stroke-opacity:1;stroke-dasharray:none" />
    </g>
    <g
       id="g10426">
      <g
         id="g10390"
         transform="matrix(0,1,-1,0,-153.99275,-883.25263)">
        <polygon
           transform="matrix(0.1464239,0,0,0.1464239,289.93566,-490.90235)"
           style="fill:#000000"
           points="510.756,-187.22 500.756,-182.22 503.256,-187.22 500.756,-192.22 "
           id="polygon108" />
        <polygon
           transform="matrix(0.1464239,0,0,0.1464239,289.93566,-490.90235)"
           style="fill:none;stroke:#000000;stroke-width:2"
           points="510.756,-187.22 500.756,-182.22 503.256,-187.22 500.756,-192.22 "
           id="polygon110" />
      </g>
      <path
         style="fill:none;stroke:#000000;stroke-width:0.23604774;stroke-linecap:butt;stroke-linejoin:miter;stroke-miterlimit:4;stroke-opacity:1;stroke-dasharray:none"
         d="m 364.29854,-527.2645 0.0145,8.35971"
         id="path10424"
         inkscape:connector-curvature="0" />
    </g>
  </g>
</svg>
