<?xml version="1.0" encoding="UTF-8" standalone="no"?>
<!-- Generated by graphviz version 2.34.0 (20140110.0949)
 -->

<!-- Title: ER Pages: 1 -->

<svg
   xmlns:dc="http://purl.org/dc/elements/1.1/"
   xmlns:cc="http://creativecommons.org/ns#"
   xmlns:rdf="http://www.w3.org/1999/02/22-rdf-syntax-ns#"
   xmlns:svg="http://www.w3.org/2000/svg"
   xmlns="http://www.w3.org/2000/svg"
   xmlns:sodipodi="http://sodipodi.sourceforge.net/DTD/sodipodi-0.dtd"
   xmlns:inkscape="http://www.inkscape.org/namespaces/inkscape"
   width="397.64841"
   height="289.25613"
   viewBox="0 0 318.11873 231.40492"
   id="svg2"
   version="1.1"
   inkscape:version="0.48.4 r9939"
   sodipodi:docname="models.svg">
  <metadata
     id="metadata371">
    <rdf:RDF>
      <cc:Work
         rdf:about="">
        <dc:format>image/svg+xml</dc:format>
        <dc:type
           rdf:resource="http://purl.org/dc/dcmitype/StillImage" />
        <dc:title />
      </cc:Work>
    </rdf:RDF>
  </metadata>
  <defs
     id="defs369" />
  <sodipodi:namedview
     pagecolor="#ffffff"
     bordercolor="#666666"
     borderopacity="1"
     objecttolerance="10"
     gridtolerance="10"
     guidetolerance="10"
     inkscape:pageopacity="0"
     inkscape:pageshadow="2"
     inkscape:window-width="1616"
     inkscape:window-height="1026"
     id="namedview367"
     showgrid="false"
     inkscape:zoom="2.3319084"
     inkscape:cx="251.15706"
     inkscape:cy="89.518122"
     inkscape:window-x="64"
     inkscape:window-y="0"
     inkscape:window-maximized="1"
     inkscape:current-layer="g10503"
     fit-margin-top="0"
     fit-margin-left="0"
     fit-margin-right="0"
     fit-margin-bottom="0" />
  <g
     id="graph0"
     class="graph"
     transform="translate(4.4999939,454.5)">
    <title
       id="title5">ER</title>
    <!-- MetaDap -->
    <!-- Dap -->
    <!-- MetaDap&#45;&gt;Dap -->
    <!-- MetaDap&#45;&gt;Dap -->
    <!-- MetaDap&#45;&gt;Dap -->
    <!-- User -->
    <!-- MetaDap&#45;&gt;User -->
    <!-- MetaDap&#45;&gt;User -->
    <!-- TaggableManager -->
    <!-- MetaDap&#45;&gt;TaggableManager -->
    <!-- Author -->
    <!-- Author&#45;&gt;Dap -->
    <!-- Profile -->
    <!-- Rank -->
    <!-- Rank&#45;&gt;MetaDap -->
    <!-- Report -->
    <!-- Report&#45;&gt;MetaDap -->
    <!-- Report&#45;&gt;Dap -->
    <!-- Report&#45;&gt;User -->
    <!-- User&#45;&gt;Profile -->
    <!-- User&#45;&gt;Rank -->
    <!-- UserSocialAuth -->
    <!-- UserSocialAuth&#45;&gt;Profile -->
    <!-- UserSocialAuth&#45;&gt;User -->
    <g
       id="g10503"
       transform="matrix(0.50415015,0,0,0.50415015,-2.2313244,-225.36376)">
      <polygon
         style="fill:#ffffff;stroke:#ffffff"
         id="polygon7"
         points="-4,-454 626,-454 626,4 -4,4 -4,4 " />
      <g
         class="node"
         id="node1">
        <title
           id="title10">MetaDap</title>
        <polygon
           style="fill:#bfbfbf;stroke:#000000"
           id="polygon12"
           points="151,-269 253,-269 253,-163 151,-163 151,-163 " />
        <text
           style="font-size:14px;text-anchor:middle;font-family:Linux Libertine Display O"
           id="text14"
           font-size="14.00"
           y="-253.8"
           x="202">MetaDap</text>
        <polyline
           style="fill:none;stroke:#000000"
           id="polyline16"
           points="151,-246 253,-246 " />
        <text
           style="font-size:14px;text-anchor:start;font-family:Linux Libertine Display O"
           id="text18"
           font-size="14.00"
           y="-230.8"
           x="159">id</text>
        <text
           style="font-size:14px;text-anchor:start;font-family:Linux Libertine Display O"
           id="text20"
           font-size="14.00"
           y="-215.8"
           x="159">package_name</text>
        <text
           style="font-size:14px;text-anchor:start;font-family:Linux Libertine Display O"
           id="text22"
           font-size="14.00"
           y="-200.8"
           x="159">active</text>
        <text
           style="font-size:14px;text-anchor:start;font-family:Linux Libertine Display O"
           id="text24"
           font-size="14.00"
           y="-185.8"
           x="159">average_rank</text>
        <text
           style="font-size:14px;text-anchor:start;font-family:Linux Libertine Display O"
           id="text26"
           font-size="14.00"
           y="-170.8"
           x="159">rank_count</text>
      </g>
      <g
         class="node"
         id="node2">
        <title
           id="title29">Dap</title>
        <polygon
           style="fill:#bfbfbf;stroke:#000000"
           id="polygon31"
           points="392,-400.5 472,-400.5 472,-249.5 392,-249.5 392,-249.5 " />
        <text
           style="font-size:14px;text-anchor:middle;font-family:Linux Libertine Display O"
           id="text33"
           font-size="14.00"
           y="-385.29999"
           x="432">Dap</text>
        <polyline
           style="fill:none;stroke:#000000"
           id="polyline35"
           points="392,-377.5 472,-377.5 " />
        <text
           style="font-size:14px;text-anchor:start;font-family:Linux Libertine Display O"
           id="text37"
           font-size="14.00"
           y="-362.29999"
           x="400">id</text>
        <text
           style="font-size:14px;text-anchor:start;font-family:Linux Libertine Display O"
           id="text39"
           font-size="14.00"
           y="-347.29999"
           x="400">file</text>
        <text
           style="font-size:14px;text-anchor:start;font-family:Linux Libertine Display O"
           id="text41"
           font-size="14.00"
           y="-332.29999"
           x="400">version</text>
        <text
           style="font-size:14px;text-anchor:start;font-family:Linux Libertine Display O"
           id="text43"
           font-size="14.00"
           y="-317.29999"
           x="400">license</text>
        <text
           style="font-size:14px;text-anchor:start;font-family:Linux Libertine Display O"
           id="text45"
           font-size="14.00"
           y="-302.29999"
           x="400">homepage</text>
        <text
           style="font-size:14px;text-anchor:start;font-family:Linux Libertine Display O"
           id="text47"
           font-size="14.00"
           y="-287.29999"
           x="400">bugreports</text>
        <text
           style="font-size:14px;text-anchor:start;font-family:Linux Libertine Display O"
           id="text49"
           font-size="14.00"
           y="-272.29999"
           x="400">summary</text>
        <text
           style="font-size:14px;text-anchor:start;font-family:Linux Libertine Display O"
           id="text51"
           font-size="14.00"
           y="-257.29999"
           x="400">description</text>
      </g>
      <g
         class="edge"
         id="edge4">
        <title
           id="title54">MetaDap-&gt;Dap</title>
        <path
           style="fill:none;stroke:#000000"
           inkscape:connector-curvature="0"
           id="path56"
           d="m 258.382,-225.213 c 35.997,-6.605 79.182,-15.875 95.618,-24.787 8.404,-4.557 16.527,-10.293 24.147,-16.554" />
        <polygon
           style="fill:#000000;stroke:#000000"
           id="polygon58"
           points="255.005,-219.518 256.973,-219.876 255.185,-229.714 253.218,-229.357 253.218,-229.357 " />
        <polyline
           style="fill:none;stroke:#000000"
           id="polyline60"
           points="253.128,-224.259 258.047,-225.153 " />
        <polygon
           style="fill:#000000;stroke:#000000"
           id="polygon62"
           points="388.69,-282.01 387.96,-275.323 391.688,-278.654 391.688,-278.654 391.688,-278.654 387.96,-275.323 394.687,-275.299 384.232,-271.991 384.232,-271.991 384.232,-271.991 " />
        <ellipse
           style="fill:none;stroke:#000000"
           sodipodi:ry="4.00001"
           sodipodi:rx="4.00001"
           sodipodi:cy="-269.32599"
           sodipodi:cx="381.24899"
           d="m 385.249,-269.32599 c 0,2.20915 -1.79086,4.00001 -4.00001,4.00001 -2.20914,0 -4.00001,-1.79086 -4.00001,-4.00001 0,-2.20914 1.79087,-4.00001 4.00001,-4.00001 2.20915,0 4.00001,1.79087 4.00001,4.00001 z"
           id="ellipse64"
           ry="4.00001"
           rx="4.00001"
           cy="-269.32599"
           cx="381.24899" />
        <text
           style="font-size:14px;text-anchor:middle;font-family:Linux Libertine Display O"
           transform="matrix(0.97944585,-0.20170726,0.20170726,0.97944585,0,0)"
           id="text66"
           font-size="14.00"
           y="-174.31822"
           x="361.28568">version</text>
      </g>
      <g
         class="edge"
         id="edge5">
        <title
           id="title69">MetaDap-&gt;Dap</title>
        <path
           style="fill:none;stroke:#000000"
           inkscape:connector-curvature="0"
           id="path71"
           d="m 238.022,-273.206 c 9.631,-11.554 21.043,-22.407 33.978,-29.794 32.185,-18.38 73.844,-23.6 106.445,-24.373" />
        <polygon
           style="fill:#000000;stroke:#000000"
           id="polygon73"
           points="239.338,-266.891 240.598,-268.445 232.832,-274.745 231.572,-273.192 231.572,-273.192 " />
        <polyline
           style="fill:none;stroke:#000000"
           id="polyline75"
           points="234.825,-269.265 237.975,-273.148 " />
        <polygon
           style="fill:#000000;stroke:#000000"
           id="polygon77"
           points="390.777,-332.451 388.777,-332.439 388.841,-322.439 390.841,-322.452 390.841,-322.452 " />
        <polyline
           style="fill:none;stroke:#000000"
           id="polyline79"
           points="391.809,-327.458 386.809,-327.426 " />
        <ellipse
           style="fill:none;stroke:#000000"
           sodipodi:ry="4"
           sodipodi:rx="4"
           sodipodi:cy="-327.401"
           sodipodi:cx="382.80899"
           d="m 386.80899,-327.401 c 0,2.20914 -1.79086,4 -4,4 -2.20914,0 -4,-1.79086 -4,-4 0,-2.20914 1.79086,-4 4,-4 2.20914,0 4,1.79086 4,4 z"
           id="ellipse81"
           ry="4"
           rx="4"
           cy="-327.401"
           cx="382.80899" />
        <text
           style="font-size:14px;text-anchor:middle;font-family:Linux Libertine Display O"
           transform="matrix(0.9837988,-0.17927611,0.17927611,0.9837988,0,0)"
           id="text83"
           font-size="14.00"
           y="-260.83371"
           x="358.89252">latest</text>
      </g>
      <g
         class="edge"
         id="edge6">
        <title
           id="title86">MetaDap-&gt;Dap</title>
        <path
           style="fill:none;stroke:#000000"
           inkscape:connector-curvature="0"
           id="path88"
           d="m 257.609,-257.563 c 4.739,-2.742 9.569,-5.269 14.391,-7.437 34.119,-15.343 46.968,-5.874 82,-19 8.676,-3.251 17.602,-7.289 26.163,-11.552" />
        <polygon
           style="fill:#000000;stroke:#000000"
           id="polygon90"
           points="256.7,-251.204 258.419,-252.227 253.304,-260.82 251.585,-259.797 251.585,-259.797 " />
        <polyline
           style="fill:none;stroke:#000000"
           id="polyline92"
           points="253.284,-254.989 257.58,-257.546 " />
        <polygon
           style="fill:#000000;stroke:#000000"
           id="polygon94"
           points="388.77,-305.65 386.994,-304.729 391.599,-295.852 393.375,-296.773 393.375,-296.773 " />
        <polyline
           style="fill:none;stroke:#000000"
           id="polyline96"
           points="391.96,-301.672 387.521,-299.369 " />
        <ellipse
           style="fill:none;stroke:#000000"
           sodipodi:ry="4.00001"
           sodipodi:rx="4.00001"
           sodipodi:cy="-297.52802"
           sodipodi:cx="383.97101"
           d="m 387.97102,-297.52802 c 0,2.20915 -1.79087,4.00001 -4.00001,4.00001 -2.20915,0 -4.00001,-1.79086 -4.00001,-4.00001 0,-2.20914 1.79086,-4.00001 4.00001,-4.00001 2.20914,0 4.00001,1.79087 4.00001,4.00001 z"
           id="ellipse98"
           ry="4.00001"
           rx="4.00001"
           cy="-297.52802"
           cx="383.97101" />
        <text
           style="font-size:14px;text-anchor:middle;font-family:Linux Libertine Display O"
           transform="matrix(0.9872205,-0.15936026,0.15936026,0.9872205,0,0)"
           id="text100"
           font-size="14.00"
           y="-226.63121"
           x="350.77335">latest_stable</text>
      </g>
      <g
         class="node"
         id="node7">
        <title
           id="title103">User</title>
        <polygon
           style="fill:#ffffff;stroke:#000000;fill-opacity:1"
           id="polygon105"
           points="405,-109 459,-109 459,-73 405,-73 405,-73 " />
        <text
           style="font-size:14px;text-anchor:middle;font-family:Linux Libertine Display O"
           id="text107"
           font-size="14.00"
           y="-87.300003"
           x="432">User</text>
      </g>
      <g
         class="edge"
         id="edge2">
        <title
           id="title110">MetaDap-&gt;User</title>
        <path
           style="fill:none;stroke:#000000"
           inkscape:connector-curvature="0"
           id="path112"
           d="m 235.664,-147.468 c 9.785,14.135 21.857,27.445 36.336,36.468 20.677,12.8849 87.479,17.5006 127.618,19.1309" />
        <polygon
           style="fill:#000000;stroke:#000000"
           id="polygon114"
           points="222.127,-160.575 228.597,-158.732 225.939,-162.967 225.939,-162.967 225.939,-162.967 228.597,-158.732 229.751,-165.359 231.254,-154.496 231.254,-154.496 231.254,-154.496 " />
        <ellipse
           style="fill:none;stroke:#000000"
           sodipodi:ry="4.00001"
           sodipodi:rx="4.00001"
           sodipodi:cy="-151.108"
           sodipodi:cx="233.38"
           d="m 237.38001,-151.108 c 0,2.20914 -1.79086,4.00001 -4.00001,4.00001 -2.20914,0 -4.00001,-1.79087 -4.00001,-4.00001 0,-2.20915 1.79087,-4.00001 4.00001,-4.00001 2.20915,0 4.00001,1.79086 4.00001,4.00001 z"
           id="ellipse116"
           ry="4.00001"
           rx="4.00001"
           cy="-151.108"
           cx="233.38" />
        <polygon
           style="fill:#000000;stroke:#000000"
           id="polygon118"
           points="404.051,-96.7019 402.052,-96.779 401.667,-86.7864 403.665,-86.7093 403.665,-86.7093 " />
        <polyline
           style="fill:none;stroke:#000000"
           id="polyline120"
           points="404.857,-91.6671 399.861,-91.8598 " />
        <text
           style="font-size:14px;text-anchor:middle;font-family:Linux Libertine Display O"
           transform="matrix(0.97478455,0.22314812,-0.22314812,0.97478455,0,0)"
           id="text122"
           font-size="14.00"
           y="-174.66739"
           x="281.83545">owner</text>
      </g>
      <g
         class="edge"
         id="edge3">
        <title
           id="title125">MetaDap-&gt;User</title>
        <path
           style="fill:none;stroke:#000000"
           inkscape:connector-curvature="0"
           id="path127"
           d="m 268.113,-153.349 c 1.29,0.81 2.586,1.594 3.887,2.349 32.955,19.121 46.359,11.533 82,25 11.358,4.292 23.412,9.463 34.528,14.497" />
        <polygon
           style="fill:#000000;stroke:#000000"
           id="polygon129"
           points="250.689,-160.228 257.372,-160.994 253.299,-163.894 253.299,-163.894 253.299,-163.894 257.372,-160.994 255.908,-167.56 261.445,-158.095 261.445,-158.095 261.445,-158.095 " />
        <ellipse
           style="fill:none;stroke:#000000"
           sodipodi:ry="4.00001"
           sodipodi:rx="4.00001"
           sodipodi:cy="-155.77499"
           sodipodi:cx="264.70401"
           d="m 268.70402,-155.77499 c 0,2.20914 -1.79087,4.00001 -4.00001,4.00001 -2.20914,0 -4.00001,-1.79087 -4.00001,-4.00001 0,-2.20915 1.79087,-4.00001 4.00001,-4.00001 2.20914,0 4.00001,1.79086 4.00001,4.00001 z"
           id="ellipse131"
           ry="4.00001"
           rx="4.00001"
           cy="-155.77499"
           cx="264.70401" />
        <polygon
           style="fill:#000000;stroke:#000000"
           id="polygon133"
           points="406.885,-107.931 400.453,-105.959 404.987,-103.851 404.987,-103.851 404.987,-103.851 400.453,-105.959 403.09,-99.7701 395.92,-108.067 395.92,-108.067 395.92,-108.067 " />
        <ellipse
           style="fill:none;stroke:#000000"
           sodipodi:ry="4.00001"
           sodipodi:rx="4.00001"
           sodipodi:cy="-109.753"
           sodipodi:cx="392.29199"
           d="m 396.292,-109.753 c 0,2.20915 -1.79086,4.00001 -4.00001,4.00001 -2.20914,0 -4.00001,-1.79086 -4.00001,-4.00001 0,-2.20914 1.79087,-4.00001 4.00001,-4.00001 2.20915,0 4.00001,1.79087 4.00001,4.00001 z"
           id="ellipse135"
           ry="4.00001"
           rx="4.00001"
           cy="-109.753"
           cx="392.29199" />
        <text
           style="font-size:14px;text-anchor:middle;font-family:Linux Libertine Display O"
           transform="matrix(0.94969773,0.31316803,-0.31316803,0.94969773,0,0)"
           id="text137"
           font-size="14.00"
           y="-234.77843"
           x="260.802">comaintainers</text>
      </g>
      <g
         class="node"
         id="node9">
        <title
           id="title140">TaggableManager</title>
        <polygon
           style="fill:#ffffff;stroke:#000000;fill-opacity:1"
           id="polygon142"
           points="372.5,-179 491.5,-179 491.5,-143 372.5,-143 372.5,-143 " />
        <text
           style="font-size:14px;text-anchor:middle;font-family:Linux Libertine Display O"
           id="text144"
           font-size="14.00"
           y="-157.3"
           x="432">TaggableManager</text>
      </g>
      <g
         class="edge"
         id="edge12">
        <title
           id="title147">MetaDap-&gt;TaggableManager</title>
        <path
           style="fill:none;stroke:#000000"
           inkscape:connector-curvature="0"
           id="path149"
           d="m 257.757,-191.627 c 4.768,1.706 9.56,3.28 14.243,4.627 30.875,8.878 66.051,15.023 95.453,19.1" />
        <polygon
           style="fill:#000000;stroke:#000000"
           id="polygon151"
           points="252.217,-188.336 254.094,-187.646 257.542,-197.033 255.665,-197.723 255.665,-197.723 " />
        <polyline
           style="fill:none;stroke:#000000"
           id="polyline153"
           points="253.002,-193.374 257.695,-191.65 " />
        <polygon
           style="fill:#000000;stroke:#000000"
           id="polygon155"
           points="372.181,-172.302 370.199,-172.572 368.849,-162.663 370.831,-162.393 370.831,-162.393 " />
        <polyline
           style="fill:none;stroke:#000000"
           id="polyline157"
           points="372.496,-167.212 367.542,-167.888 " />
        <text
           style="font-size:14px;text-anchor:middle;font-family:Linux Libertine Display O"
           id="text159"
           font-size="14.00"
           y="-230.6584"
           x="280.28464"
           transform="matrix(0.98793334,0.1548797,-0.1548797,0.98793334,0,0)">tags</text>
      </g>
      <g
         class="node"
         id="node3">
        <title
           id="title162">Author</title>
        <polygon
           style="fill:#bfbfbf;stroke:#000000"
           id="polygon164"
           points="173.5,-449.5 230.5,-449.5 230.5,-388.5 173.5,-388.5 173.5,-388.5 " />
        <text
           style="font-size:14px;text-anchor:middle;font-family:Linux Libertine Display O"
           id="text166"
           font-size="14.00"
           y="-434.29999"
           x="202">Author</text>
        <polyline
           style="fill:none;stroke:#000000"
           id="polyline168"
           points="173.5,-426.5 230.5,-426.5 " />
        <text
           style="font-size:14px;text-anchor:start;font-family:Linux Libertine Display O"
           id="text170"
           font-size="14.00"
           y="-411.29999"
           x="181.5">id</text>
        <text
           style="font-size:14px;text-anchor:start;font-family:Linux Libertine Display O"
           id="text172"
           font-size="14.00"
           y="-396.29999"
           x="181.5">author</text>
      </g>
      <g
         class="edge"
         id="edge7">
        <title
           id="title175">Author-&gt;Dap</title>
        <path
           style="fill:none;stroke:#000000"
           inkscape:connector-curvature="0"
           id="path177"
           d="m 245.13,-407.506 c 30.765,8.979 73.162,22.583 108.87,38.506 11.074,4.938 22.621,11.002 33.302,17.031" />
        <polygon
           style="fill:#000000;stroke:#000000"
           id="polygon179"
           points="229.385,-407.323 235.429,-410.277 230.621,-411.65 230.621,-411.65 230.621,-411.65 235.429,-410.277 231.857,-415.977 240.236,-408.904 240.236,-408.904 240.236,-408.904 " />
        <polygon
           style="fill:#000000;stroke:#000000"
           id="polygon181"
           points="239.825,-403.822 241.748,-403.272 244.494,-412.888 242.571,-413.437 242.571,-413.437 " />
        <polyline
           style="fill:none;stroke:#000000"
           id="polyline183"
           points="240.236,-408.904 245.044,-407.531 " />
        <polygon
           style="fill:#000000;stroke:#000000"
           id="polygon185"
           points="393.432,-354.229 391.695,-355.22 386.74,-346.534 388.477,-345.543 388.477,-345.543 " />
        <polyline
           style="fill:none;stroke:#000000"
           id="polyline187"
           points="391.823,-349.39 387.48,-351.868 " />
        <text
           style="font-size:14px;text-anchor:middle;font-family:Linux Libertine Display O"
           transform="matrix(0.9470681,0.32103273,-0.32103273,0.9470681,0,0)"
           id="text189"
           font-size="14.00"
           y="-471.01535"
           x="163.39386">has</text>
      </g>
      <g
         class="node"
         id="node4">
        <title
           id="title192">Profile</title>
        <polygon
           style="fill:#bfbfbf;stroke:#000000"
           id="polygon194"
           points="568,-51 622,-51 622,-5 568,-5 568,-5 " />
        <text
           style="font-size:14px;text-anchor:middle;font-family:Linux Libertine Display O"
           id="text196"
           font-size="14.00"
           y="-35.799999"
           x="595">Profile</text>
        <polyline
           style="fill:none;stroke:#000000"
           id="polyline198"
           points="568,-28 622,-28 " />
        <text
           style="font-size:14px;text-anchor:start;font-family:Linux Libertine Display O"
           id="text200"
           font-size="14.00"
           y="-12.8"
           x="576">id</text>
      </g>
      <g
         class="node"
         id="node5">
        <title
           id="title203">Rank</title>
        <polygon
           style="fill:#bfbfbf;stroke:#000000"
           id="polygon205"
           points="568,-138.5 622,-138.5 622,-77.5 568,-77.5 568,-77.5 " />
        <text
           style="font-size:14px;text-anchor:middle;font-family:Linux Libertine Display O"
           id="text207"
           font-size="14.00"
           y="-123.3"
           x="595">Rank</text>
        <polyline
           style="fill:none;stroke:#000000"
           id="polyline209"
           points="568,-115.5 622,-115.5 " />
        <text
           style="font-size:14px;text-anchor:start;font-family:Linux Libertine Display O"
           id="text211"
           font-size="14.00"
           y="-100.3"
           x="576">id</text>
        <text
           style="font-size:14px;text-anchor:start;font-family:Linux Libertine Display O"
           id="text213"
           font-size="14.00"
           y="-85.300003"
           x="576">rank</text>
      </g>
      <g
         class="edge"
         id="edge8">
        <title
           id="title216">Rank-&gt;MetaDap</title>
        <path
           style="fill:none;stroke:#000000"
           inkscape:connector-curvature="0"
           id="path218"
           d="M 554.301,-147.713 C 536.676,-162.926 514.781,-178.819 492,-188 415.3,-218.911 318.225,-221.704 258.384,-219.722" />
        <polygon
           style="fill:#000000;stroke:#000000"
           id="polygon220"
           points="570.762,-138.863 564.035,-138.887 567.74,-135.529 567.74,-135.529 567.74,-135.529 564.035,-138.887 564.717,-132.195 560.331,-142.246 560.331,-142.246 560.331,-142.246 " />
        <ellipse
           style="fill:none;stroke:#000000"
           sodipodi:ry="4.00001"
           sodipodi:rx="4.00001"
           sodipodi:cy="-144.93201"
           sodipodi:cx="557.36798"
           d="m 561.36799,-144.93201 c 0,2.20915 -1.79086,4.00001 -4.00001,4.00001 -2.20914,0 -4.00001,-1.79086 -4.00001,-4.00001 0,-2.20914 1.79087,-4.00001 4.00001,-4.00001 2.20915,0 4.00001,1.79087 4.00001,4.00001 z"
           id="ellipse222"
           ry="4.00001"
           rx="4.00001"
           cy="-144.93201"
           cx="557.36798" />
        <polygon
           style="fill:#000000;stroke:#000000"
           id="polygon224"
           points="254.249,-214.569 256.248,-214.641 255.887,-224.635 253.888,-224.563 253.888,-224.563 " />
        <polyline
           style="fill:none;stroke:#000000"
           id="polyline226"
           points="253.07,-219.53 258.066,-219.71 " />
        <text
           style="font-size:14px;text-anchor:middle;font-family:Linux Libertine Display O"
           transform="matrix(0.96972031,0.24421818,-0.24421818,0.96972031,0,0)"
           id="text228"
           font-size="14.00"
           y="-312.39392"
           x="365.99939">ranked</text>
      </g>
      <g
         class="node"
         id="node6">
        <title
           id="title231">Report</title>
        <polygon
           style="fill:#bfbfbf;stroke:#000000"
           id="polygon233"
           points="0,-269 64,-269 64,-163 0,-163 0,-163 " />
        <text
           style="font-size:14px;text-anchor:middle;font-family:Linux Libertine Display O"
           id="text235"
           font-size="14.00"
           y="-253.8"
           x="32">Report</text>
        <polyline
           style="fill:none;stroke:#000000"
           id="polyline237"
           points="0,-246 64,-246 " />
        <text
           style="font-size:14px;text-anchor:start;font-family:Linux Libertine Display O"
           id="text239"
           font-size="14.00"
           y="-230.8"
           x="8">id</text>
        <text
           style="font-size:14px;text-anchor:start;font-family:Linux Libertine Display O"
           id="text241"
           font-size="14.00"
           y="-215.8"
           x="8">problem</text>
        <text
           style="font-size:14px;text-anchor:start;font-family:Linux Libertine Display O"
           id="text243"
           font-size="14.00"
           y="-200.8"
           x="8">email</text>
        <text
           style="font-size:14px;text-anchor:start;font-family:Linux Libertine Display O"
           id="text245"
           font-size="14.00"
           y="-185.8"
           x="8">message</text>
        <text
           style="font-size:14px;text-anchor:start;font-family:Linux Libertine Display O"
           id="text247"
           font-size="14.00"
           y="-170.8"
           x="8">solved</text>
      </g>
      <g
         class="edge"
         id="edge13">
        <title
           id="title250">Report-&gt;MetaDap</title>
        <path
           style="fill:none;stroke:#000000"
           inkscape:connector-curvature="0"
           id="path252"
           d="m 82.3845,-216 c 19.8705,0 42.8725,0 63.3025,0" />
        <polygon
           style="fill:#000000;stroke:#000000"
           id="polygon254"
           points="64.2058,-211.5 69.2058,-216 64.2058,-216 64.2058,-216 64.2058,-216 69.2058,-216 64.2058,-220.5 74.2058,-216 74.2058,-216 74.2058,-216 " />
        <ellipse
           style="fill:none;stroke:#000000"
           sodipodi:ry="4"
           sodipodi:rx="4"
           sodipodi:cy="-216"
           sodipodi:cx="78.205803"
           d="m 82.205803,-216 c 0,2.20914 -1.790861,4 -4,4 -2.209139,0 -4,-1.79086 -4,-4 0,-2.20914 1.790861,-4 4,-4 2.209139,0 4,1.79086 4,4 z"
           id="ellipse256"
           ry="4"
           rx="4"
           cy="-216"
           cx="78.205803" />
        <polygon
           style="fill:#000000;stroke:#000000"
           id="polygon258"
           points="149.822,-221 147.822,-221 147.822,-211 149.822,-211 149.822,-211 " />
        <polyline
           style="fill:none;stroke:#000000"
           id="polyline260"
           points="150.822,-216 145.822,-216 " />
        <text
           style="font-size:14px;text-anchor:middle;font-family:Linux Libertine Display O"
           id="text262"
           font-size="14.00"
           y="-219.8"
           x="107">reported</text>
      </g>
      <g
         class="edge"
         id="edge15">
        <title
           id="title265">Report-&gt;Dap</title>
        <path
           style="fill:none;stroke:#000000"
           inkscape:connector-curvature="0"
           id="path267"
           d="M 79.3595,-249.057 C 125.605,-279.829 199.956,-323.497 272,-341 c 33.265,-8.082 71.402,-4.656 101.986,1.062" />
        <polygon
           style="fill:#000000;stroke:#000000"
           id="polygon269"
           points="66.7526,-235.052 68.3597,-241.584 64.2238,-238.774 64.2238,-238.774 64.2238,-238.774 68.3597,-241.584 61.695,-242.497 72.4956,-244.394 72.4956,-244.394 72.4956,-244.394 " />
        <ellipse
           style="fill:none;stroke:#000000"
           sodipodi:ry="4.00001"
           sodipodi:rx="4.00001"
           sodipodi:cy="-246.642"
           sodipodi:cx="75.804298"
           d="m 79.804308,-246.642 c 0,2.20915 -1.790865,4.00001 -4.00001,4.00001 -2.209144,0 -4.00001,-1.79086 -4.00001,-4.00001 0,-2.20914 1.790866,-4.00001 4.00001,-4.00001 2.209145,0 4.00001,1.79087 4.00001,4.00001 z"
           id="ellipse271"
           ry="4.00001"
           rx="4.00001"
           cy="-246.642"
           cx="75.804298" />
        <polygon
           style="fill:#000000;stroke:#000000"
           id="polygon273"
           points="392.867,-340.568 387.048,-337.192 391.941,-336.164 391.941,-336.164 391.941,-336.164 387.048,-337.192 391.016,-331.76 382.155,-338.221 382.155,-338.221 382.155,-338.221 " />
        <ellipse
           style="fill:none;stroke:#000000"
           sodipodi:ry="4"
           sodipodi:rx="4"
           sodipodi:cy="-339.04401"
           sodipodi:cx="378.241"
           d="m 382.241,-339.04401 c 0,2.20914 -1.79086,4 -4,4 -2.20914,0 -4,-1.79086 -4,-4 0,-2.20914 1.79086,-4 4,-4 2.20914,0 4,1.79086 4,4 z"
           id="ellipse275"
           ry="4"
           rx="4"
           cy="-339.04401"
           cx="378.241" />
        <text
           style="font-size:14px;text-anchor:middle;font-family:Linux Libertine Display O"
           transform="matrix(0.92750721,-0.37380527,0.37380527,0.92750721,0,0)"
           id="text277"
           font-size="14.00"
           y="-225.28947"
           x="308.88025">versions</text>
      </g>
      <g
         class="edge"
         id="edge14"
         transform="translate(0,4.9863456)">
        <title
           id="title280">Report-&gt;User</title>
        <path
           style="fill:none;stroke:#000000"
           inkscape:connector-curvature="0"
           id="path282"
           d="M 79.0794,-181.157 C 125.056,-149.1 199.157,-104.546 272,-91 c 40.189,7.4736 87.086,6.3008 119.483,3.9841" />
        <polygon
           style="fill:#000000;stroke:#000000"
           id="polygon284"
           points="72.4612,-185.883 72.4612,-185.883 61.708,-188.032 68.3922,-188.788 64.3232,-191.694 64.3232,-191.694 64.3232,-191.694 68.3922,-188.788 66.9384,-195.356 72.4612,-185.883 " />
        <ellipse
           style="fill:none;stroke:#000000"
           sodipodi:ry="4.00001"
           sodipodi:rx="4.00001"
           sodipodi:cy="-183.558"
           sodipodi:cx="75.7164"
           d="m 79.71641,-183.558 c 0,2.20915 -1.790865,4.00001 -4.00001,4.00001 -2.209144,0 -4.00001,-1.79086 -4.00001,-4.00001 0,-2.20914 1.790866,-4.00001 4.00001,-4.00001 2.209145,0 4.00001,1.79087 4.00001,4.00001 z"
           id="ellipse286"
           ry="4.00001"
           rx="4.00001"
           cy="-183.558"
           cx="75.7164" />
        <polygon
           style="fill:#000000;stroke:#000000"
           id="polygon288"
           points="404.25,-83.031 404.25,-83.031 403.445,-92.9985 401.452,-92.8375 402.257,-82.8699 " />
        <polyline
           style="fill:none;stroke:#000000"
           id="polyline290"
           points="404.845,-88.0953 399.861,-87.6926 " />
        <ellipse
           style="fill:none;stroke:#000000"
           sodipodi:ry="4"
           sodipodi:rx="4"
           sodipodi:cy="-87.370499"
           sodipodi:cx="395.87399"
           d="m 399.87399,-87.370499 c 0,2.209139 -1.79086,4 -4,4 -2.20914,0 -4,-1.790861 -4,-4 0,-2.209139 1.79086,-4 4,-4 2.20914,0 4,1.790861 4,4 z"
           id="ellipse292"
           ry="4"
           rx="4"
           cy="-87.370499"
           cx="395.87399" />
        <text
           style="font-size:14px;text-anchor:middle;font-family:Linux Libertine Display O"
           transform="matrix(0.91334258,0.40719201,-0.40719201,0.91334258,0,0)"
           id="text294"
           font-size="14.00"
           y="-193.18314"
           x="118.94054">reporter</text>
      </g>
      <g
         class="edge"
         id="edge1">
        <title
           id="title297">User-&gt;Profile</title>
        <path
           style="fill:none;stroke:#000000"
           inkscape:connector-curvature="0"
           id="path299"
           d="m 463.927,-78.8982 c 28.486,11.1468 70.534,27.6003 99.05,38.7589" />
        <polygon
           style="fill:#000000;stroke:#000000"
           id="polygon301"
           points="458.335,-75.7171 460.197,-74.9883 463.842,-84.3007 461.979,-85.0296 461.979,-85.0296 " />
        <polyline
           style="fill:none;stroke:#000000"
           id="polyline303"
           points="459.226,-80.7377 463.882,-78.9157 " />
        <polygon
           style="fill:#000000;stroke:#000000"
           id="polygon305"
           points="568.676,-43.2785 566.814,-44.0073 563.17,-34.6949 565.032,-33.9661 565.032,-33.9661 " />
        <polyline
           style="fill:none;stroke:#000000"
           id="polyline307"
           points="567.785,-38.2579 563.129,-40.0799 " />
        <text
           style="font-size:14px;text-anchor:middle;font-family:Linux Libertine Display O"
           transform="matrix(0.9757761,0.21877159,-0.21877159,0.9757761,0,0)"
           id="text309"
           font-size="14.00"
           y="-175.62891"
           x="491.30127">is</text>
      </g>
      <g
         class="edge"
         id="edge9">
        <title
           id="title312">User-&gt;Rank</title>
        <path
           style="fill:none;stroke:#000000"
           inkscape:connector-curvature="0"
           id="path314"
           d="m 464.3,-94.3049 c 24.248,-2.5604 58.158,-6.1411 85.223,-8.9991" />
        <polygon
           style="fill:#000000;stroke:#000000"
           id="polygon316"
           points="460.745,-88.9018 462.734,-89.1119 461.684,-99.0566 459.695,-98.8466 459.695,-98.8466 " />
        <polyline
           style="fill:none;stroke:#000000"
           id="polyline318"
           points="459.226,-93.7692 464.198,-94.2943 " />
        <polygon
           style="fill:#000000;stroke:#000000"
           id="polygon320"
           points="567.313,-109.707 562.813,-104.707 567.785,-105.232 567.785,-105.232 567.785,-105.232 562.813,-104.707 568.258,-100.757 557.841,-104.182 557.841,-104.182 557.841,-104.182 " />
        <ellipse
           style="fill:none;stroke:#000000"
           sodipodi:ry="4"
           sodipodi:rx="4"
           sodipodi:cy="-103.762"
           sodipodi:cx="553.86298"
           d="m 557.86298,-103.762 c 0,2.20914 -1.79086,3.999999 -4,3.999999 -2.20914,0 -4,-1.790859 -4,-3.999999 0,-2.20914 1.79086,-4 4,-4 2.20914,0 4,1.79086 4,4 z"
           id="ellipse322"
           ry="4"
           rx="4"
           cy="-103.762"
           cx="553.86298" />
        <text
           style="font-size:14px;text-anchor:middle;font-family:Linux Libertine Display O"
           transform="matrix(0.99123146,-0.13213699,0.13213699,0.99123146,0,0)"
           id="text324"
           font-size="14.00"
           y="-35.912327"
           x="523.50568">ranker</text>
      </g>
      <g
         class="node"
         id="node8">
        <title
           id="title327">UserSocialAuth</title>
        <polygon
           style="fill:#ffffff;stroke:#000000;fill-opacity:1"
           id="polygon329"
           points="150,-36 254,-36 254,0 150,0 150,0 " />
        <text
           style="font-size:14px;text-anchor:middle;font-family:Linux Libertine Display O"
           id="text331"
           font-size="14.00"
           y="-14.3"
           x="202">UserSocialAuth</text>
      </g>
      <g
         class="edge"
         id="edge10"
         transform="translate(0,6.3473158)">
        <title
           id="title334">UserSocialAuth-&gt;Profile</title>
        <path
           style="fill:none;stroke:#000000"
           inkscape:connector-curvature="0"
           id="path336"
           d="m 272.193,-19.7696 c 82.121,-2.1003 216.234,-5.5303 282.377,-7.222" />
        <polygon
           style="fill:#000000;stroke:#000000"
           id="polygon338"
           points="254.116,-19.3073 254.116,-19.3073 254.116,-19.3073 259.115,-19.4352 254.001,-23.8059 264.113,-19.5631 264.113,-19.5631 264.113,-19.5631 254.231,-14.8088 259.115,-19.4352 " />
        <ellipse
           style="fill:none;stroke:#000000"
           sodipodi:ry="4"
           sodipodi:rx="4"
           sodipodi:cy="-19.6653"
           sodipodi:cx="268.112"
           d="m 272.112,-19.6653 c 0,2.209139 -1.79086,4 -4,4 -2.20914,0 -4,-1.790861 -4,-4 0,-2.209139 1.79086,-4 4,-4 2.20914,0 4,1.790861 4,4 z"
           id="ellipse340"
           ry="4"
           rx="4"
           cy="-19.6653"
           cx="268.112" />
        <polygon
           style="fill:#000000;stroke:#000000"
           id="polygon342"
           points="564.738,-22.25 566.738,-22.3011 566.738,-22.3011 566.482,-32.2978 564.483,-32.2467 " />
        <polyline
           style="fill:none;stroke:#000000"
           id="polyline344"
           points="567.609,-27.325 562.611,-27.1972 " />
        <ellipse
           style="fill:none;stroke:#000000"
           sodipodi:ry="4"
           sodipodi:rx="4"
           sodipodi:cy="-27.0949"
           sodipodi:cx="558.612"
           d="m 562.612,-27.0949 c 0,2.209139 -1.79086,4 -4,4 -2.20914,0 -4,-1.790861 -4,-4 0,-2.209139 1.79086,-4 4,-4 2.20914,0 4,1.790861 4,4 z"
           id="ellipse346"
           ry="4"
           rx="4"
           cy="-27.0949"
           cx="558.612" />
        <text
           style="font-size:14px;text-anchor:middle;font-family:Linux Libertine Display O"
           id="text348"
           font-size="14.00"
           y="-29.799999"
           x="432">syncs</text>
      </g>
      <g
         class="edge"
         id="edge11">
        <title
           id="title351">UserSocialAuth-&gt;User</title>
        <path
           style="fill:none;stroke:#000000"
           inkscape:connector-curvature="0"
           id="path353"
           d="m 268.95,-26.499 c 26.9,-4.6423 57.981,-11.5369 85.05,-21.501 16.008,-5.8925 32.665,-14.7998 46.376,-22.982" />
        <polygon
           style="fill:#000000;stroke:#000000"
           id="polygon355"
           points="254.794,-19.6415 259.008,-24.8848 254.073,-24.0833 254.073,-24.0833 254.073,-24.0833 259.008,-24.8848 253.352,-28.5251 263.944,-25.6862 263.944,-25.6862 263.944,-25.6862 " />
        <polygon
           style="fill:#000000;stroke:#000000"
           id="polygon357"
           points="265.732,-20.9112 267.706,-21.2317 266.104,-31.1024 264.129,-30.7819 264.129,-30.7819 " />
        <polyline
           style="fill:none;stroke:#000000"
           id="polyline359"
           points="263.944,-25.6862 268.879,-26.4877 " />
        <polygon
           style="fill:#000000;stroke:#000000"
           id="polygon361"
           points="401.463,-77.484 399.752,-76.4486 404.929,-67.8927 406.64,-68.9281 406.64,-68.9281 " />
        <polyline
           style="fill:none;stroke:#000000"
           id="polyline363"
           points="404.907,-73.7237 400.629,-71.1354 " />
        <text
           style="font-size:14px;text-anchor:middle;font-family:Linux Libertine Display O"
           transform="matrix(0.95942798,-0.2819538,0.2819538,0.95942798,0,0)"
           id="text365"
           font-size="14.00"
           y="47.472816"
           x="328.72635">associated</text>
      </g>
    </g>
  </g>
</svg>
