<?xml version="1.0" encoding="UTF-8" standalone="no"?>
<!-- Generated by graphviz version 2.34.0 (20140110.0949)
 -->

<!-- Title: ER Pages: 1 -->

<svg
   xmlns:dc="http://purl.org/dc/elements/1.1/"
   xmlns:cc="http://creativecommons.org/ns#"
   xmlns:rdf="http://www.w3.org/1999/02/22-rdf-syntax-ns#"
   xmlns:svg="http://www.w3.org/2000/svg"
   xmlns="http://www.w3.org/2000/svg"
   xmlns:sodipodi="http://sodipodi.sourceforge.net/DTD/sodipodi-0.dtd"
   xmlns:inkscape="http://www.inkscape.org/namespaces/inkscape"
   width="480.83179"
   height="349.76514"
   viewBox="0 0 384.66543 279.81213"
   id="svg2"
   version="1.1"
   inkscape:version="0.48.4 r9939"
   sodipodi:docname="models.svg">
  <metadata
     id="metadata371">
    <rdf:RDF>
      <cc:Work
         rdf:about="">
        <dc:format>image/svg+xml</dc:format>
        <dc:type
           rdf:resource="http://purl.org/dc/dcmitype/StillImage" />
        <dc:title />
      </cc:Work>
    </rdf:RDF>
  </metadata>
  <defs
     id="defs369" />
  <sodipodi:namedview
     pagecolor="#ffffff"
     bordercolor="#666666"
     borderopacity="1"
     objecttolerance="10"
     gridtolerance="10"
     guidetolerance="10"
     inkscape:pageopacity="0"
     inkscape:pageshadow="2"
     inkscape:window-width="1616"
     inkscape:window-height="1026"
     id="namedview367"
     showgrid="false"
     inkscape:zoom="2.3319084"
     inkscape:cx="252.01472"
     inkscape:cy="167.18045"
     inkscape:window-x="64"
     inkscape:window-y="0"
     inkscape:window-maximized="1"
     inkscape:current-layer="g10503"
     fit-margin-top="0"
     fit-margin-left="0"
     fit-margin-right="0"
     fit-margin-bottom="0" />
  <g
     id="graph0"
     class="graph"
     transform="translate(4.4999865,454.50001)">
    <title
       id="title5">ER</title>
    <!-- MetaDap -->
    <!-- Dap -->
    <!-- MetaDap&#45;&gt;Dap -->
    <!-- MetaDap&#45;&gt;Dap -->
    <!-- MetaDap&#45;&gt;Dap -->
    <!-- User -->
    <!-- MetaDap&#45;&gt;User -->
    <!-- MetaDap&#45;&gt;User -->
    <!-- TaggableManager -->
    <!-- MetaDap&#45;&gt;TaggableManager -->
    <!-- Author -->
    <!-- Author&#45;&gt;Dap -->
    <!-- Profile -->
    <!-- Rank -->
    <!-- Rank&#45;&gt;MetaDap -->
    <!-- Report -->
    <!-- Report&#45;&gt;MetaDap -->
    <!-- Report&#45;&gt;Dap -->
    <!-- Report&#45;&gt;User -->
    <!-- User&#45;&gt;Profile -->
    <!-- User&#45;&gt;Rank -->
    <!-- UserSocialAuth -->
    <!-- UserSocialAuth&#45;&gt;Profile -->
    <!-- UserSocialAuth&#45;&gt;User -->
    <g
       id="g10503"
       transform="matrix(0.50415015,0,0,0.50415015,-2.2313244,-225.36376)">
      <g
         id="g10331"
         transform="matrix(1.2091883,0,0,1.2091883,0.94134725,95.076072)">
        <polygon
           points="-4,-454 626,-454 626,4 -4,4 -4,4 "
           id="polygon7"
           style="fill:#ffffff;stroke:#ffffff" />
        <g
           id="node1"
           class="node">
          <title
             id="title10">MetaDap</title>
          <polygon
             points="151,-269 253,-269 253,-163 151,-163 151,-163 "
             id="polygon12"
             style="fill:#bfbfbf;stroke:#000000" />
          <text
             x="202"
             y="-253.8"
             font-size="14.00"
             id="text14"
             style="font-size:14px;text-anchor:middle;font-family:Linux Libertine Display O">MetaDap</text>
          <polyline
             points="151,-246 253,-246 "
             id="polyline16"
             style="fill:none;stroke:#000000" />
          <text
             x="159"
             y="-230.8"
             font-size="14.00"
             id="text18"
             style="font-size:14px;text-anchor:start;font-family:Linux Libertine Display O">id</text>
          <text
             x="159"
             y="-215.8"
             font-size="14.00"
             id="text20"
             style="font-size:14px;text-anchor:start;font-family:Linux Libertine Display O">package_name</text>
          <text
             x="159"
             y="-200.8"
             font-size="14.00"
             id="text22"
             style="font-size:14px;text-anchor:start;font-family:Linux Libertine Display O">active</text>
          <text
             x="159"
             y="-185.8"
             font-size="14.00"
             id="text24"
             style="font-size:14px;text-anchor:start;font-family:Linux Libertine Display O">average_rank</text>
          <text
             x="159"
             y="-170.8"
             font-size="14.00"
             id="text26"
             style="font-size:14px;text-anchor:start;font-family:Linux Libertine Display O">rank_count</text>
        </g>
        <g
           id="node2"
           class="node">
          <title
             id="title29">Dap</title>
          <polygon
             points="392,-400.5 472,-400.5 472,-249.5 392,-249.5 392,-249.5 "
             id="polygon31"
             style="fill:#bfbfbf;stroke:#000000" />
          <text
             x="432"
             y="-385.29999"
             font-size="14.00"
             id="text33"
             style="font-size:14px;text-anchor:middle;font-family:Linux Libertine Display O">Dap</text>
          <polyline
             points="392,-377.5 472,-377.5 "
             id="polyline35"
             style="fill:none;stroke:#000000" />
          <text
             x="400"
             y="-362.29999"
             font-size="14.00"
             id="text37"
             style="font-size:14px;text-anchor:start;font-family:Linux Libertine Display O">id</text>
          <text
             x="400"
             y="-347.29999"
             font-size="14.00"
             id="text39"
             style="font-size:14px;text-anchor:start;font-family:Linux Libertine Display O">file</text>
          <text
             x="400"
             y="-332.29999"
             font-size="14.00"
             id="text41"
             style="font-size:14px;text-anchor:start;font-family:Linux Libertine Display O">version</text>
          <text
             x="400"
             y="-317.29999"
             font-size="14.00"
             id="text43"
             style="font-size:14px;text-anchor:start;font-family:Linux Libertine Display O">license</text>
          <text
             x="400"
             y="-302.29999"
             font-size="14.00"
             id="text45"
             style="font-size:14px;text-anchor:start;font-family:Linux Libertine Display O">homepage</text>
          <text
             x="400"
             y="-287.29999"
             font-size="14.00"
             id="text47"
             style="font-size:14px;text-anchor:start;font-family:Linux Libertine Display O">bugreports</text>
          <text
             x="400"
             y="-272.29999"
             font-size="14.00"
             id="text49"
             style="font-size:14px;text-anchor:start;font-family:Linux Libertine Display O">summary</text>
          <text
             x="400"
             y="-257.29999"
             font-size="14.00"
             id="text51"
             style="font-size:14px;text-anchor:start;font-family:Linux Libertine Display O">description</text>
        </g>
        <g
           id="edge4"
           class="edge">
          <title
             id="title54">MetaDap-&gt;Dap</title>
          <path
             d="m 258.382,-225.213 c 35.997,-6.605 79.182,-15.875 95.618,-24.787 8.404,-4.557 16.527,-10.293 24.147,-16.554"
             id="path56"
             inkscape:connector-curvature="0"
             style="fill:none;stroke:#000000" />
          <polygon
             points="255.005,-219.518 256.973,-219.876 255.185,-229.714 253.218,-229.357 253.218,-229.357 "
             id="polygon58"
             style="fill:#000000;stroke:#000000" />
          <polyline
             points="253.128,-224.259 258.047,-225.153 "
             id="polyline60"
             style="fill:none;stroke:#000000" />
          <polygon
             points="388.69,-282.01 387.96,-275.323 391.688,-278.654 391.688,-278.654 391.688,-278.654 387.96,-275.323 394.687,-275.299 384.232,-271.991 384.232,-271.991 384.232,-271.991 "
             id="polygon62"
             style="fill:#000000;stroke:#000000" />
          <ellipse
             cx="381.24899"
             cy="-269.32599"
             rx="4.00001"
             ry="4.00001"
             id="ellipse64"
             d="m 385.249,-269.32599 c 0,2.20915 -1.79086,4.00001 -4.00001,4.00001 -2.20914,0 -4.00001,-1.79086 -4.00001,-4.00001 0,-2.20914 1.79087,-4.00001 4.00001,-4.00001 2.20915,0 4.00001,1.79087 4.00001,4.00001 z"
             sodipodi:cx="381.24899"
             sodipodi:cy="-269.32599"
             sodipodi:rx="4.00001"
             sodipodi:ry="4.00001"
             style="fill:none;stroke:#000000" />
          <text
             x="361.28568"
             y="-174.31822"
             font-size="14.00"
             id="text66"
             transform="matrix(0.97944585,-0.20170726,0.20170726,0.97944585,0,0)"
             style="font-size:14px;text-anchor:middle;font-family:Linux Libertine Display O">version</text>
        </g>
        <g
           id="edge5"
           class="edge">
          <title
             id="title69">MetaDap-&gt;Dap</title>
          <path
             d="m 238.022,-273.206 c 9.631,-11.554 21.043,-22.407 33.978,-29.794 32.185,-18.38 73.844,-23.6 106.445,-24.373"
             id="path71"
             inkscape:connector-curvature="0"
             style="fill:none;stroke:#000000" />
          <polygon
             points="239.338,-266.891 240.598,-268.445 232.832,-274.745 231.572,-273.192 231.572,-273.192 "
             id="polygon73"
             style="fill:#000000;stroke:#000000" />
          <polyline
             points="234.825,-269.265 237.975,-273.148 "
             id="polyline75"
             style="fill:none;stroke:#000000" />
          <polygon
             points="390.777,-332.451 388.777,-332.439 388.841,-322.439 390.841,-322.452 390.841,-322.452 "
             id="polygon77"
             style="fill:#000000;stroke:#000000" />
          <polyline
             points="391.809,-327.458 386.809,-327.426 "
             id="polyline79"
             style="fill:none;stroke:#000000" />
          <ellipse
             cx="382.80899"
             cy="-327.401"
             rx="4"
             ry="4"
             id="ellipse81"
             d="m 386.80899,-327.401 c 0,2.20914 -1.79086,4 -4,4 -2.20914,0 -4,-1.79086 -4,-4 0,-2.20914 1.79086,-4 4,-4 2.20914,0 4,1.79086 4,4 z"
             sodipodi:cx="382.80899"
             sodipodi:cy="-327.401"
             sodipodi:rx="4"
             sodipodi:ry="4"
             style="fill:none;stroke:#000000" />
          <text
             x="358.89252"
             y="-260.83371"
             font-size="14.00"
             id="text83"
             transform="matrix(0.9837988,-0.17927611,0.17927611,0.9837988,0,0)"
             style="font-size:14px;text-anchor:middle;font-family:Linux Libertine Display O">latest</text>
        </g>
        <g
           id="edge6"
           class="edge">
          <title
             id="title86">MetaDap-&gt;Dap</title>
          <path
             d="m 257.609,-257.563 c 4.739,-2.742 9.569,-5.269 14.391,-7.437 34.119,-15.343 46.968,-5.874 82,-19 8.676,-3.251 17.602,-7.289 26.163,-11.552"
             id="path88"
             inkscape:connector-curvature="0"
             style="fill:none;stroke:#000000" />
          <polygon
             points="256.7,-251.204 258.419,-252.227 253.304,-260.82 251.585,-259.797 251.585,-259.797 "
             id="polygon90"
             style="fill:#000000;stroke:#000000" />
          <polyline
             points="253.284,-254.989 257.58,-257.546 "
             id="polyline92"
             style="fill:none;stroke:#000000" />
          <polygon
             points="388.77,-305.65 386.994,-304.729 391.599,-295.852 393.375,-296.773 393.375,-296.773 "
             id="polygon94"
             style="fill:#000000;stroke:#000000" />
          <polyline
             points="391.96,-301.672 387.521,-299.369 "
             id="polyline96"
             style="fill:none;stroke:#000000" />
          <ellipse
             cx="383.97101"
             cy="-297.52802"
             rx="4.00001"
             ry="4.00001"
             id="ellipse98"
             d="m 387.97102,-297.52802 c 0,2.20915 -1.79087,4.00001 -4.00001,4.00001 -2.20915,0 -4.00001,-1.79086 -4.00001,-4.00001 0,-2.20914 1.79086,-4.00001 4.00001,-4.00001 2.20914,0 4.00001,1.79087 4.00001,4.00001 z"
             sodipodi:cx="383.97101"
             sodipodi:cy="-297.52802"
             sodipodi:rx="4.00001"
             sodipodi:ry="4.00001"
             style="fill:none;stroke:#000000" />
          <text
             x="350.77335"
             y="-226.63121"
             font-size="14.00"
             id="text100"
             transform="matrix(0.9872205,-0.15936026,0.15936026,0.9872205,0,0)"
             style="font-size:14px;text-anchor:middle;font-family:Linux Libertine Display O">latest_stable</text>
        </g>
        <g
           id="node7"
           class="node">
          <title
             id="title103">User</title>
          <polygon
             points="405,-109 459,-109 459,-73 405,-73 405,-73 "
             id="polygon105"
             style="fill:#ffffff;fill-opacity:1;stroke:#000000" />
          <text
             x="432"
             y="-87.300003"
             font-size="14.00"
             id="text107"
             style="font-size:14px;text-anchor:middle;font-family:Linux Libertine Display O">User</text>
        </g>
        <g
           id="edge2"
           class="edge">
          <title
             id="title110">MetaDap-&gt;User</title>
          <path
             d="m 235.664,-147.468 c 9.785,14.135 21.857,27.445 36.336,36.468 20.677,12.8849 87.479,17.5006 127.618,19.1309"
             id="path112"
             inkscape:connector-curvature="0"
             style="fill:none;stroke:#000000" />
          <polygon
             points="222.127,-160.575 228.597,-158.732 225.939,-162.967 225.939,-162.967 225.939,-162.967 228.597,-158.732 229.751,-165.359 231.254,-154.496 231.254,-154.496 231.254,-154.496 "
             id="polygon114"
             style="fill:#000000;stroke:#000000" />
          <ellipse
             cx="233.38"
             cy="-151.108"
             rx="4.00001"
             ry="4.00001"
             id="ellipse116"
             d="m 237.38001,-151.108 c 0,2.20914 -1.79086,4.00001 -4.00001,4.00001 -2.20914,0 -4.00001,-1.79087 -4.00001,-4.00001 0,-2.20915 1.79087,-4.00001 4.00001,-4.00001 2.20915,0 4.00001,1.79086 4.00001,4.00001 z"
             sodipodi:cx="233.38"
             sodipodi:cy="-151.108"
             sodipodi:rx="4.00001"
             sodipodi:ry="4.00001"
             style="fill:none;stroke:#000000" />
          <polygon
             points="404.051,-96.7019 402.052,-96.779 401.667,-86.7864 403.665,-86.7093 403.665,-86.7093 "
             id="polygon118"
             style="fill:#000000;stroke:#000000" />
          <polyline
             points="404.857,-91.6671 399.861,-91.8598 "
             id="polyline120"
             style="fill:none;stroke:#000000" />
          <text
             x="281.83545"
             y="-174.66739"
             font-size="14.00"
             id="text122"
             transform="matrix(0.97478455,0.22314812,-0.22314812,0.97478455,0,0)"
             style="font-size:14px;text-anchor:middle;font-family:Linux Libertine Display O">owner</text>
        </g>
        <g
           id="edge3"
           class="edge">
          <title
             id="title125">MetaDap-&gt;User</title>
          <path
             d="m 268.113,-153.349 c 1.29,0.81 2.586,1.594 3.887,2.349 32.955,19.121 46.359,11.533 82,25 11.358,4.292 23.412,9.463 34.528,14.497"
             id="path127"
             inkscape:connector-curvature="0"
             style="fill:none;stroke:#000000" />
          <polygon
             points="250.689,-160.228 257.372,-160.994 253.299,-163.894 253.299,-163.894 253.299,-163.894 257.372,-160.994 255.908,-167.56 261.445,-158.095 261.445,-158.095 261.445,-158.095 "
             id="polygon129"
             style="fill:#000000;stroke:#000000" />
          <ellipse
             cx="264.70401"
             cy="-155.77499"
             rx="4.00001"
             ry="4.00001"
             id="ellipse131"
             d="m 268.70402,-155.77499 c 0,2.20914 -1.79087,4.00001 -4.00001,4.00001 -2.20914,0 -4.00001,-1.79087 -4.00001,-4.00001 0,-2.20915 1.79087,-4.00001 4.00001,-4.00001 2.20914,0 4.00001,1.79086 4.00001,4.00001 z"
             sodipodi:cx="264.70401"
             sodipodi:cy="-155.77499"
             sodipodi:rx="4.00001"
             sodipodi:ry="4.00001"
             style="fill:none;stroke:#000000" />
          <polygon
             points="406.885,-107.931 400.453,-105.959 404.987,-103.851 404.987,-103.851 404.987,-103.851 400.453,-105.959 403.09,-99.7701 395.92,-108.067 395.92,-108.067 395.92,-108.067 "
             id="polygon133"
             style="fill:#000000;stroke:#000000" />
          <ellipse
             cx="392.29199"
             cy="-109.753"
             rx="4.00001"
             ry="4.00001"
             id="ellipse135"
             d="m 396.292,-109.753 c 0,2.20915 -1.79086,4.00001 -4.00001,4.00001 -2.20914,0 -4.00001,-1.79086 -4.00001,-4.00001 0,-2.20914 1.79087,-4.00001 4.00001,-4.00001 2.20915,0 4.00001,1.79087 4.00001,4.00001 z"
             sodipodi:cx="392.29199"
             sodipodi:cy="-109.753"
             sodipodi:rx="4.00001"
             sodipodi:ry="4.00001"
             style="fill:none;stroke:#000000" />
          <text
             x="260.802"
             y="-234.77843"
             font-size="14.00"
             id="text137"
             transform="matrix(0.94969773,0.31316803,-0.31316803,0.94969773,0,0)"
             style="font-size:14px;text-anchor:middle;font-family:Linux Libertine Display O">comaintainers</text>
        </g>
        <g
           id="node9"
           class="node">
          <title
             id="title140">TaggableManager</title>
          <polygon
             points="372.5,-179 491.5,-179 491.5,-143 372.5,-143 372.5,-143 "
             id="polygon142"
             style="fill:#ffffff;fill-opacity:1;stroke:#000000" />
          <text
             x="432"
             y="-157.3"
             font-size="14.00"
             id="text144"
             style="font-size:14px;text-anchor:middle;font-family:Linux Libertine Display O">TaggableManager</text>
        </g>
        <g
           id="edge12"
           class="edge">
          <title
             id="title147">MetaDap-&gt;TaggableManager</title>
          <path
             d="m 257.757,-191.627 c 4.768,1.706 9.56,3.28 14.243,4.627 30.875,8.878 66.051,15.023 95.453,19.1"
             id="path149"
             inkscape:connector-curvature="0"
             style="fill:none;stroke:#000000" />
          <polygon
             points="252.217,-188.336 254.094,-187.646 257.542,-197.033 255.665,-197.723 255.665,-197.723 "
             id="polygon151"
             style="fill:#000000;stroke:#000000" />
          <polyline
             points="253.002,-193.374 257.695,-191.65 "
             id="polyline153"
             style="fill:none;stroke:#000000" />
          <polygon
             points="372.181,-172.302 370.199,-172.572 368.849,-162.663 370.831,-162.393 370.831,-162.393 "
             id="polygon155"
             style="fill:#000000;stroke:#000000" />
          <polyline
             points="372.496,-167.212 367.542,-167.888 "
             id="polyline157"
             style="fill:none;stroke:#000000" />
          <text
             transform="matrix(0.98793334,0.1548797,-0.1548797,0.98793334,0,0)"
             x="280.28464"
             y="-230.6584"
             font-size="14.00"
             id="text159"
             style="font-size:14px;text-anchor:middle;font-family:Linux Libertine Display O">tags</text>
        </g>
        <g
           id="node3"
           class="node">
          <title
             id="title162">Author</title>
          <polygon
             points="173.5,-449.5 230.5,-449.5 230.5,-388.5 173.5,-388.5 173.5,-388.5 "
             id="polygon164"
             style="fill:#bfbfbf;stroke:#000000" />
          <text
             x="202"
             y="-434.29999"
             font-size="14.00"
             id="text166"
             style="font-size:14px;text-anchor:middle;font-family:Linux Libertine Display O">Author</text>
          <polyline
             points="173.5,-426.5 230.5,-426.5 "
             id="polyline168"
             style="fill:none;stroke:#000000" />
          <text
             x="181.5"
             y="-411.29999"
             font-size="14.00"
             id="text170"
             style="font-size:14px;text-anchor:start;font-family:Linux Libertine Display O">id</text>
          <text
             x="181.5"
             y="-396.29999"
             font-size="14.00"
             id="text172"
             style="font-size:14px;text-anchor:start;font-family:Linux Libertine Display O">author</text>
        </g>
        <g
           id="edge7"
           class="edge">
          <title
             id="title175">Author-&gt;Dap</title>
          <path
             d="m 245.13,-407.506 c 30.765,8.979 73.162,22.583 108.87,38.506 11.074,4.938 22.621,11.002 33.302,17.031"
             id="path177"
             inkscape:connector-curvature="0"
             style="fill:none;stroke:#000000" />
          <polygon
             points="229.385,-407.323 235.429,-410.277 230.621,-411.65 230.621,-411.65 230.621,-411.65 235.429,-410.277 231.857,-415.977 240.236,-408.904 240.236,-408.904 240.236,-408.904 "
             id="polygon179"
             style="fill:#000000;stroke:#000000" />
          <polygon
             points="239.825,-403.822 241.748,-403.272 244.494,-412.888 242.571,-413.437 242.571,-413.437 "
             id="polygon181"
             style="fill:#000000;stroke:#000000" />
          <polyline
             points="240.236,-408.904 245.044,-407.531 "
             id="polyline183"
             style="fill:none;stroke:#000000" />
          <polygon
             points="393.432,-354.229 391.695,-355.22 386.74,-346.534 388.477,-345.543 388.477,-345.543 "
             id="polygon185"
             style="fill:#000000;stroke:#000000" />
          <polyline
             points="391.823,-349.39 387.48,-351.868 "
             id="polyline187"
             style="fill:none;stroke:#000000" />
          <text
             x="163.39386"
             y="-471.01535"
             font-size="14.00"
             id="text189"
             transform="matrix(0.9470681,0.32103273,-0.32103273,0.9470681,0,0)"
             style="font-size:14px;text-anchor:middle;font-family:Linux Libertine Display O">has</text>
        </g>
        <g
           id="node4"
           class="node">
          <title
             id="title192">Profile</title>
          <polygon
             points="568,-51 622,-51 622,-5 568,-5 568,-5 "
             id="polygon194"
             style="fill:#bfbfbf;stroke:#000000" />
          <text
             x="595"
             y="-35.799999"
             font-size="14.00"
             id="text196"
             style="font-size:14px;text-anchor:middle;font-family:Linux Libertine Display O">Profile</text>
          <polyline
             points="568,-28 622,-28 "
             id="polyline198"
             style="fill:none;stroke:#000000" />
          <text
             x="576"
             y="-12.8"
             font-size="14.00"
             id="text200"
             style="font-size:14px;text-anchor:start;font-family:Linux Libertine Display O">id</text>
        </g>
        <g
           id="node5"
           class="node">
          <title
             id="title203">Rank</title>
          <polygon
             points="568,-138.5 622,-138.5 622,-77.5 568,-77.5 568,-77.5 "
             id="polygon205"
             style="fill:#bfbfbf;stroke:#000000" />
          <text
             x="595"
             y="-123.3"
             font-size="14.00"
             id="text207"
             style="font-size:14px;text-anchor:middle;font-family:Linux Libertine Display O">Rank</text>
          <polyline
             points="568,-115.5 622,-115.5 "
             id="polyline209"
             style="fill:none;stroke:#000000" />
          <text
             x="576"
             y="-100.3"
             font-size="14.00"
             id="text211"
             style="font-size:14px;text-anchor:start;font-family:Linux Libertine Display O">id</text>
          <text
             x="576"
             y="-85.300003"
             font-size="14.00"
             id="text213"
             style="font-size:14px;text-anchor:start;font-family:Linux Libertine Display O">rank</text>
        </g>
        <g
           id="edge8"
           class="edge">
          <title
             id="title216">Rank-&gt;MetaDap</title>
          <path
             d="M 554.301,-147.713 C 536.676,-162.926 514.781,-178.819 492,-188 415.3,-218.911 318.225,-221.704 258.384,-219.722"
             id="path218"
             inkscape:connector-curvature="0"
             style="fill:none;stroke:#000000" />
          <polygon
             points="570.762,-138.863 564.035,-138.887 567.74,-135.529 567.74,-135.529 567.74,-135.529 564.035,-138.887 564.717,-132.195 560.331,-142.246 560.331,-142.246 560.331,-142.246 "
             id="polygon220"
             style="fill:#000000;stroke:#000000" />
          <ellipse
             cx="557.36798"
             cy="-144.93201"
             rx="4.00001"
             ry="4.00001"
             id="ellipse222"
             d="m 561.36799,-144.93201 c 0,2.20915 -1.79086,4.00001 -4.00001,4.00001 -2.20914,0 -4.00001,-1.79086 -4.00001,-4.00001 0,-2.20914 1.79087,-4.00001 4.00001,-4.00001 2.20915,0 4.00001,1.79087 4.00001,4.00001 z"
             sodipodi:cx="557.36798"
             sodipodi:cy="-144.93201"
             sodipodi:rx="4.00001"
             sodipodi:ry="4.00001"
             style="fill:none;stroke:#000000" />
          <polygon
             points="254.249,-214.569 256.248,-214.641 255.887,-224.635 253.888,-224.563 253.888,-224.563 "
             id="polygon224"
             style="fill:#000000;stroke:#000000" />
          <polyline
             points="253.07,-219.53 258.066,-219.71 "
             id="polyline226"
             style="fill:none;stroke:#000000" />
          <text
             x="365.99939"
             y="-312.39392"
             font-size="14.00"
             id="text228"
             transform="matrix(0.96972031,0.24421818,-0.24421818,0.96972031,0,0)"
             style="font-size:14px;text-anchor:middle;font-family:Linux Libertine Display O">ranked</text>
        </g>
        <g
           id="node6"
           class="node">
          <title
             id="title231">Report</title>
          <polygon
             points="0,-269 64,-269 64,-163 0,-163 0,-163 "
             id="polygon233"
             style="fill:#bfbfbf;stroke:#000000" />
          <text
             x="32"
             y="-253.8"
             font-size="14.00"
             id="text235"
             style="font-size:14px;text-anchor:middle;font-family:Linux Libertine Display O">Report</text>
          <polyline
             points="0,-246 64,-246 "
             id="polyline237"
             style="fill:none;stroke:#000000" />
          <text
             x="8"
             y="-230.8"
             font-size="14.00"
             id="text239"
             style="font-size:14px;text-anchor:start;font-family:Linux Libertine Display O">id</text>
          <text
             x="8"
             y="-215.8"
             font-size="14.00"
             id="text241"
             style="font-size:14px;text-anchor:start;font-family:Linux Libertine Display O">problem</text>
          <text
             x="8"
             y="-200.8"
             font-size="14.00"
             id="text243"
             style="font-size:14px;text-anchor:start;font-family:Linux Libertine Display O">email</text>
          <text
             x="8"
             y="-185.8"
             font-size="14.00"
             id="text245"
             style="font-size:14px;text-anchor:start;font-family:Linux Libertine Display O">message</text>
          <text
             x="8"
             y="-170.8"
             font-size="14.00"
             id="text247"
             style="font-size:14px;text-anchor:start;font-family:Linux Libertine Display O">solved</text>
        </g>
        <g
           id="edge13"
           class="edge">
          <title
             id="title250">Report-&gt;MetaDap</title>
          <path
             d="m 82.3845,-216 c 19.8705,0 42.8725,0 63.3025,0"
             id="path252"
             inkscape:connector-curvature="0"
             style="fill:none;stroke:#000000" />
          <polygon
             points="64.2058,-211.5 69.2058,-216 64.2058,-216 64.2058,-216 64.2058,-216 69.2058,-216 64.2058,-220.5 74.2058,-216 74.2058,-216 74.2058,-216 "
             id="polygon254"
             style="fill:#000000;stroke:#000000" />
          <ellipse
             cx="78.205803"
             cy="-216"
             rx="4"
             ry="4"
             id="ellipse256"
             d="m 82.205803,-216 c 0,2.20914 -1.790861,4 -4,4 -2.209139,0 -4,-1.79086 -4,-4 0,-2.20914 1.790861,-4 4,-4 2.209139,0 4,1.79086 4,4 z"
             sodipodi:cx="78.205803"
             sodipodi:cy="-216"
             sodipodi:rx="4"
             sodipodi:ry="4"
             style="fill:none;stroke:#000000" />
          <polygon
             points="149.822,-221 147.822,-221 147.822,-211 149.822,-211 149.822,-211 "
             id="polygon258"
             style="fill:#000000;stroke:#000000" />
          <polyline
             points="150.822,-216 145.822,-216 "
             id="polyline260"
             style="fill:none;stroke:#000000" />
          <text
             x="107"
             y="-219.8"
             font-size="14.00"
             id="text262"
             style="font-size:14px;text-anchor:middle;font-family:Linux Libertine Display O">reported</text>
        </g>
        <g
           id="edge15"
           class="edge">
          <title
             id="title265">Report-&gt;Dap</title>
          <path
             d="M 79.3595,-249.057 C 125.605,-279.829 199.956,-323.497 272,-341 c 33.265,-8.082 71.402,-4.656 101.986,1.062"
             id="path267"
             inkscape:connector-curvature="0"
             style="fill:none;stroke:#000000" />
          <polygon
             points="66.7526,-235.052 68.3597,-241.584 64.2238,-238.774 64.2238,-238.774 64.2238,-238.774 68.3597,-241.584 61.695,-242.497 72.4956,-244.394 72.4956,-244.394 72.4956,-244.394 "
             id="polygon269"
             style="fill:#000000;stroke:#000000" />
          <ellipse
             cx="75.804298"
             cy="-246.642"
             rx="4.00001"
             ry="4.00001"
             id="ellipse271"
             d="m 79.804308,-246.642 c 0,2.20915 -1.790865,4.00001 -4.00001,4.00001 -2.209144,0 -4.00001,-1.79086 -4.00001,-4.00001 0,-2.20914 1.790866,-4.00001 4.00001,-4.00001 2.209145,0 4.00001,1.79087 4.00001,4.00001 z"
             sodipodi:cx="75.804298"
             sodipodi:cy="-246.642"
             sodipodi:rx="4.00001"
             sodipodi:ry="4.00001"
             style="fill:none;stroke:#000000" />
          <polygon
             points="392.867,-340.568 387.048,-337.192 391.941,-336.164 391.941,-336.164 391.941,-336.164 387.048,-337.192 391.016,-331.76 382.155,-338.221 382.155,-338.221 382.155,-338.221 "
             id="polygon273"
             style="fill:#000000;stroke:#000000" />
          <ellipse
             cx="378.241"
             cy="-339.04401"
             rx="4"
             ry="4"
             id="ellipse275"
             d="m 382.241,-339.04401 c 0,2.20914 -1.79086,4 -4,4 -2.20914,0 -4,-1.79086 -4,-4 0,-2.20914 1.79086,-4 4,-4 2.20914,0 4,1.79086 4,4 z"
             sodipodi:cx="378.241"
             sodipodi:cy="-339.04401"
             sodipodi:rx="4"
             sodipodi:ry="4"
             style="fill:none;stroke:#000000" />
          <text
             x="308.88025"
             y="-225.28947"
             font-size="14.00"
             id="text277"
             transform="matrix(0.92750721,-0.37380527,0.37380527,0.92750721,0,0)"
             style="font-size:14px;text-anchor:middle;font-family:Linux Libertine Display O">versions</text>
        </g>
        <g
           transform="translate(0,4.9863456)"
           id="edge14"
           class="edge">
          <title
             id="title280">Report-&gt;User</title>
          <path
             d="M 79.0794,-181.157 C 125.056,-149.1 199.157,-104.546 272,-91 c 40.189,7.4736 87.086,6.3008 119.483,3.9841"
             id="path282"
             inkscape:connector-curvature="0"
             style="fill:none;stroke:#000000" />
          <polygon
             points="72.4612,-185.883 72.4612,-185.883 61.708,-188.032 68.3922,-188.788 64.3232,-191.694 64.3232,-191.694 64.3232,-191.694 68.3922,-188.788 66.9384,-195.356 72.4612,-185.883 "
             id="polygon284"
             style="fill:#000000;stroke:#000000" />
          <ellipse
             cx="75.7164"
             cy="-183.558"
             rx="4.00001"
             ry="4.00001"
             id="ellipse286"
             d="m 79.71641,-183.558 c 0,2.20915 -1.790865,4.00001 -4.00001,4.00001 -2.209144,0 -4.00001,-1.79086 -4.00001,-4.00001 0,-2.20914 1.790866,-4.00001 4.00001,-4.00001 2.209145,0 4.00001,1.79087 4.00001,4.00001 z"
             sodipodi:cx="75.7164"
             sodipodi:cy="-183.558"
             sodipodi:rx="4.00001"
             sodipodi:ry="4.00001"
             style="fill:none;stroke:#000000" />
          <polygon
             points="404.25,-83.031 404.25,-83.031 403.445,-92.9985 401.452,-92.8375 402.257,-82.8699 "
             id="polygon288"
             style="fill:#000000;stroke:#000000" />
          <polyline
             points="404.845,-88.0953 399.861,-87.6926 "
             id="polyline290"
             style="fill:none;stroke:#000000" />
          <ellipse
             cx="395.87399"
             cy="-87.370499"
             rx="4"
             ry="4"
             id="ellipse292"
             d="m 399.87399,-87.370499 c 0,2.209139 -1.79086,4 -4,4 -2.20914,0 -4,-1.790861 -4,-4 0,-2.209139 1.79086,-4 4,-4 2.20914,0 4,1.790861 4,4 z"
             sodipodi:cx="395.87399"
             sodipodi:cy="-87.370499"
             sodipodi:rx="4"
             sodipodi:ry="4"
             style="fill:none;stroke:#000000" />
          <text
             x="118.94054"
             y="-193.18314"
             font-size="14.00"
             id="text294"
             transform="matrix(0.91334258,0.40719201,-0.40719201,0.91334258,0,0)"
             style="font-size:14px;text-anchor:middle;font-family:Linux Libertine Display O">reporter</text>
        </g>
        <g
           id="edge1"
           class="edge">
          <title
             id="title297">User-&gt;Profile</title>
          <path
             d="m 463.927,-78.8982 c 28.486,11.1468 70.534,27.6003 99.05,38.7589"
             id="path299"
             inkscape:connector-curvature="0"
             style="fill:none;stroke:#000000" />
          <polygon
             points="458.335,-75.7171 460.197,-74.9883 463.842,-84.3007 461.979,-85.0296 461.979,-85.0296 "
             id="polygon301"
             style="fill:#000000;stroke:#000000" />
          <polyline
             points="459.226,-80.7377 463.882,-78.9157 "
             id="polyline303"
             style="fill:none;stroke:#000000" />
          <polygon
             points="568.676,-43.2785 566.814,-44.0073 563.17,-34.6949 565.032,-33.9661 565.032,-33.9661 "
             id="polygon305"
             style="fill:#000000;stroke:#000000" />
          <polyline
             points="567.785,-38.2579 563.129,-40.0799 "
             id="polyline307"
             style="fill:none;stroke:#000000" />
          <text
             x="491.30127"
             y="-175.62891"
             font-size="14.00"
             id="text309"
             transform="matrix(0.9757761,0.21877159,-0.21877159,0.9757761,0,0)"
             style="font-size:14px;text-anchor:middle;font-family:Linux Libertine Display O">is</text>
        </g>
        <g
           id="edge9"
           class="edge">
          <title
             id="title312">User-&gt;Rank</title>
          <path
             d="m 464.3,-94.3049 c 24.248,-2.5604 58.158,-6.1411 85.223,-8.9991"
             id="path314"
             inkscape:connector-curvature="0"
             style="fill:none;stroke:#000000" />
          <polygon
             points="460.745,-88.9018 462.734,-89.1119 461.684,-99.0566 459.695,-98.8466 459.695,-98.8466 "
             id="polygon316"
             style="fill:#000000;stroke:#000000" />
          <polyline
             points="459.226,-93.7692 464.198,-94.2943 "
             id="polyline318"
             style="fill:none;stroke:#000000" />
          <polygon
             points="567.313,-109.707 562.813,-104.707 567.785,-105.232 567.785,-105.232 567.785,-105.232 562.813,-104.707 568.258,-100.757 557.841,-104.182 557.841,-104.182 557.841,-104.182 "
             id="polygon320"
             style="fill:#000000;stroke:#000000" />
          <ellipse
             cx="553.86298"
             cy="-103.762"
             rx="4"
             ry="4"
             id="ellipse322"
             d="m 557.86298,-103.762 c 0,2.20914 -1.79086,3.999999 -4,3.999999 -2.20914,0 -4,-1.790859 -4,-3.999999 0,-2.20914 1.79086,-4 4,-4 2.20914,0 4,1.79086 4,4 z"
             sodipodi:cx="553.86298"
             sodipodi:cy="-103.762"
             sodipodi:rx="4"
             sodipodi:ry="4"
             style="fill:none;stroke:#000000" />
          <text
             x="523.50568"
             y="-35.912327"
             font-size="14.00"
             id="text324"
             transform="matrix(0.99123146,-0.13213699,0.13213699,0.99123146,0,0)"
             style="font-size:14px;text-anchor:middle;font-family:Linux Libertine Display O">ranker</text>
        </g>
        <g
           id="node8"
           class="node">
          <title
             id="title327">UserSocialAuth</title>
          <polygon
             points="150,-36 254,-36 254,0 150,0 150,0 "
             id="polygon329"
             style="fill:#ffffff;fill-opacity:1;stroke:#000000" />
          <text
             x="202"
             y="-14.3"
             font-size="14.00"
             id="text331"
             style="font-size:14px;text-anchor:middle;font-family:Linux Libertine Display O">UserSocialAuth</text>
        </g>
        <g
           transform="translate(0,6.3473158)"
           id="edge10"
           class="edge">
          <title
             id="title334">UserSocialAuth-&gt;Profile</title>
          <path
             d="m 272.193,-19.7696 c 82.121,-2.1003 216.234,-5.5303 282.377,-7.222"
             id="path336"
             inkscape:connector-curvature="0"
             style="fill:none;stroke:#000000" />
          <polygon
             points="254.116,-19.3073 254.116,-19.3073 254.116,-19.3073 259.115,-19.4352 254.001,-23.8059 264.113,-19.5631 264.113,-19.5631 264.113,-19.5631 254.231,-14.8088 259.115,-19.4352 "
             id="polygon338"
             style="fill:#000000;stroke:#000000" />
          <ellipse
             cx="268.112"
             cy="-19.6653"
             rx="4"
             ry="4"
             id="ellipse340"
             d="m 272.112,-19.6653 c 0,2.209139 -1.79086,4 -4,4 -2.20914,0 -4,-1.790861 -4,-4 0,-2.209139 1.79086,-4 4,-4 2.20914,0 4,1.790861 4,4 z"
             sodipodi:cx="268.112"
             sodipodi:cy="-19.6653"
             sodipodi:rx="4"
             sodipodi:ry="4"
             style="fill:none;stroke:#000000" />
          <polygon
             points="564.738,-22.25 566.738,-22.3011 566.738,-22.3011 566.482,-32.2978 564.483,-32.2467 "
             id="polygon342"
             style="fill:#000000;stroke:#000000" />
          <polyline
             points="567.609,-27.325 562.611,-27.1972 "
             id="polyline344"
             style="fill:none;stroke:#000000" />
          <ellipse
             cx="558.612"
             cy="-27.0949"
             rx="4"
             ry="4"
             id="ellipse346"
             d="m 562.612,-27.0949 c 0,2.209139 -1.79086,4 -4,4 -2.20914,0 -4,-1.790861 -4,-4 0,-2.209139 1.79086,-4 4,-4 2.20914,0 4,1.790861 4,4 z"
             sodipodi:cx="558.612"
             sodipodi:cy="-27.0949"
             sodipodi:rx="4"
             sodipodi:ry="4"
             style="fill:none;stroke:#000000" />
          <text
             x="432"
             y="-29.799999"
             font-size="14.00"
             id="text348"
             style="font-size:14px;text-anchor:middle;font-family:Linux Libertine Display O">syncs</text>
        </g>
        <g
           id="edge11"
           class="edge">
          <title
             id="title351">UserSocialAuth-&gt;User</title>
          <path
             d="m 268.95,-26.499 c 26.9,-4.6423 57.981,-11.5369 85.05,-21.501 16.008,-5.8925 32.665,-14.7998 46.376,-22.982"
             id="path353"
             inkscape:connector-curvature="0"
             style="fill:none;stroke:#000000" />
          <polygon
             points="254.794,-19.6415 259.008,-24.8848 254.073,-24.0833 254.073,-24.0833 254.073,-24.0833 259.008,-24.8848 253.352,-28.5251 263.944,-25.6862 263.944,-25.6862 263.944,-25.6862 "
             id="polygon355"
             style="fill:#000000;stroke:#000000" />
          <polygon
             points="265.732,-20.9112 267.706,-21.2317 266.104,-31.1024 264.129,-30.7819 264.129,-30.7819 "
             id="polygon357"
             style="fill:#000000;stroke:#000000" />
          <polyline
             points="263.944,-25.6862 268.879,-26.4877 "
             id="polyline359"
             style="fill:none;stroke:#000000" />
          <polygon
             points="401.463,-77.484 399.752,-76.4486 404.929,-67.8927 406.64,-68.9281 406.64,-68.9281 "
             id="polygon361"
             style="fill:#000000;stroke:#000000" />
          <polyline
             points="404.907,-73.7237 400.629,-71.1354 "
             id="polyline363"
             style="fill:none;stroke:#000000" />
          <text
             x="328.72635"
             y="47.472816"
             font-size="14.00"
             id="text365"
             transform="matrix(0.95942798,-0.2819538,0.2819538,0.95942798,0,0)"
             style="font-size:14px;text-anchor:middle;font-family:Linux Libertine Display O">associated</text>
        </g>
      </g>
    </g>
  </g>
</svg>
