<?xml version="1.0" encoding="UTF-8" standalone="no"?>
<!-- Generated by graphviz version 2.34.0 (20140110.0949)
 -->

<!-- Title: ER Pages: 1 -->

<svg
   xmlns:dc="http://purl.org/dc/elements/1.1/"
   xmlns:cc="http://creativecommons.org/ns#"
   xmlns:rdf="http://www.w3.org/1999/02/22-rdf-syntax-ns#"
   xmlns:svg="http://www.w3.org/2000/svg"
   xmlns="http://www.w3.org/2000/svg"
   xmlns:sodipodi="http://sodipodi.sourceforge.net/DTD/sodipodi-0.dtd"
   xmlns:inkscape="http://www.inkscape.org/namespaces/inkscape"
   width="370.0654"
   height="617.0708"
   viewBox="0 0 296.05232 493.65665"
   id="svg2"
   version="1.1"
   inkscape:version="0.48.4 r9939"
   sodipodi:docname="models.svg">
  <metadata
     id="metadata371">
    <rdf:RDF>
      <cc:Work
         rdf:about="">
        <dc:format>image/svg+xml</dc:format>
        <dc:type
           rdf:resource="http://purl.org/dc/dcmitype/StillImage" />
        <dc:title />
      </cc:Work>
    </rdf:RDF>
  </metadata>
  <defs
     id="defs369" />
  <sodipodi:namedview
     pagecolor="#ffffff"
     bordercolor="#666666"
     borderopacity="1"
     objecttolerance="10"
     gridtolerance="10"
     guidetolerance="10"
     inkscape:pageopacity="0"
     inkscape:pageshadow="2"
     inkscape:window-width="1616"
     inkscape:window-height="1026"
     id="namedview367"
     showgrid="false"
     inkscape:zoom="1.2805924"
     inkscape:cx="403.65677"
     inkscape:cy="292.10358"
     inkscape:window-x="64"
     inkscape:window-y="0"
     inkscape:window-maximized="1"
     inkscape:current-layer="edge1"
     fit-margin-top="0"
     fit-margin-left="0"
     fit-margin-right="0"
     fit-margin-bottom="0" />
  <g
     id="g10695"
     transform="matrix(0,0.70825915,-0.70825915,0,295.69819,0.35413157)">
    <polygon
       transform="translate(4,413)"
       points="-4,4 -4,4 -4,-413 692,-413 692,4 "
       id="polygon7"
       style="fill:#ffffff;stroke:#ffffff" />
    <g
       transform="translate(4,413)"
       id="node1"
       class="node">
      <title
         id="title10">MetaDap</title>
      <polygon
         points="150,-169 150,-169 150,-275 252,-275 252,-169 "
         id="polygon12"
         style="fill:#bfbfbf;stroke:#000000" />
      <text
         x="201"
         y="-259.79999"
         font-size="14.00"
         id="text14"
         style="font-size:14px;text-anchor:middle;font-family:Linux Libertine">MetaDap</text>
      <polyline
         points="150,-252 252,-252 "
         id="polyline16"
         style="fill:none;stroke:#000000" />
      <text
         x="158"
         y="-236.8"
         font-size="14.00"
         id="text18"
         style="font-size:14px;text-anchor:start;font-family:Linux Libertine">id</text>
      <text
         x="158"
         y="-221.8"
         font-size="14.00"
         id="text20"
         style="font-size:14px;text-anchor:start;font-family:Linux Libertine">package_name</text>
      <text
         x="158"
         y="-206.8"
         font-size="14.00"
         id="text22"
         style="font-size:14px;text-anchor:start;font-family:Linux Libertine">active</text>
      <text
         x="158"
         y="-191.8"
         font-size="14.00"
         id="text24"
         style="font-size:14px;text-anchor:start;font-family:Linux Libertine">average_rank</text>
      <text
         x="158"
         y="-176.8"
         font-size="14.00"
         id="text26"
         style="font-size:14px;text-anchor:start;font-family:Linux Libertine">rank_count</text>
    </g>
    <g
       transform="translate(4,413)"
       id="node2"
       class="node">
      <title
         id="title29">Dap</title>
      <polygon
         points="390,-257.5 390,-257.5 390,-408.5 470,-408.5 470,-257.5 "
         id="polygon31"
         style="fill:#bfbfbf;stroke:#000000" />
      <text
         x="430"
         y="-393.29999"
         font-size="14.00"
         id="text33"
         style="font-size:14px;text-anchor:middle;font-family:Linux Libertine">Dap</text>
      <polyline
         points="390,-385.5 470,-385.5 "
         id="polyline35"
         style="fill:none;stroke:#000000" />
      <text
         x="398"
         y="-370.29999"
         font-size="14.00"
         id="text37"
         style="font-size:14px;text-anchor:start;font-family:Linux Libertine">id</text>
      <text
         x="398"
         y="-355.29999"
         font-size="14.00"
         id="text39"
         style="font-size:14px;text-anchor:start;font-family:Linux Libertine">file</text>
      <text
         x="398"
         y="-340.29999"
         font-size="14.00"
         id="text41"
         style="font-size:14px;text-anchor:start;font-family:Linux Libertine">version</text>
      <text
         x="398"
         y="-325.29999"
         font-size="14.00"
         id="text43"
         style="font-size:14px;text-anchor:start;font-family:Linux Libertine">license</text>
      <text
         x="398"
         y="-310.29999"
         font-size="14.00"
         id="text45"
         style="font-size:14px;text-anchor:start;font-family:Linux Libertine">homepage</text>
      <text
         x="398"
         y="-295.29999"
         font-size="14.00"
         id="text47"
         style="font-size:14px;text-anchor:start;font-family:Linux Libertine">bugreports</text>
      <text
         x="398"
         y="-280.29999"
         font-size="14.00"
         id="text49"
         style="font-size:14px;text-anchor:start;font-family:Linux Libertine">summary</text>
      <text
         x="398"
         y="-265.29999"
         font-size="14.00"
         id="text51"
         style="font-size:14px;text-anchor:start;font-family:Linux Libertine">description</text>
    </g>
    <g
       transform="translate(4,413)"
       id="edge4"
       class="edge">
      <title
         id="title54">MetaDap-&gt;Dap</title>
      <path
         d="m 234.721,-279.542 c 9.774,-12.572 21.597,-24.487 35.279,-32.458 30.427,-17.727 69.595,-23.064 101.443,-23.927"
         id="path56"
         inkscape:connector-curvature="0"
         style="fill:none;stroke:#000000" />
      <polygon
         points="228.099,-279.07 228.099,-279.07 236.078,-273.043 237.284,-274.639 229.304,-280.666 "
         id="polygon58"
         style="fill:#000000;stroke:#000000" />
      <polyline
         points="231.486,-275.258 234.499,-279.248 "
         id="polyline60"
         style="fill:none;stroke:#000000" />
      <polygon
         points="379.703,-335.945 379.703,-335.945 389.693,-340.467 384.703,-335.956 389.703,-335.967 389.703,-335.967 389.703,-335.967 384.703,-335.956 389.713,-331.467 379.703,-335.945 "
         id="polygon62"
         style="fill:#000000;stroke:#000000" />
      <ellipse
         cx="375.703"
         cy="-335.936"
         rx="4"
         ry="4"
         id="ellipse64"
         d="m 379.703,-335.936 c 0,2.20913 -1.79086,4 -4,4 -2.20914,0 -4,-1.79087 -4,-4 0,-2.20914 1.79086,-4 4,-4 2.20914,0 4,1.79086 4,4 z"
         sodipodi:cx="375.703"
         sodipodi:cy="-335.936"
         sodipodi:rx="4"
         sodipodi:ry="4"
         style="fill:none;stroke:#000000" />
      <text
         transform="matrix(0.97092593,-0.2393801,0.2393801,0.97092593,0,0)"
         x="379.48642"
         y="-248.93703"
         font-size="14.00"
         id="text66"
         style="font-size:14px;text-anchor:middle;font-family:Linux Libertine">version</text>
    </g>
    <g
       transform="translate(4,413)"
       id="edge5"
       class="edge">
      <title
         id="title69">MetaDap-&gt;Dap</title>
      <path
         d="m 256.506,-266.693 c 4.433,-2.692 8.956,-5.169 13.494,-7.307 33.842,-15.943 46.902,-6.053 82,-19 8.646,-3.189 17.556,-7.138 26.111,-11.302"
         id="path71"
         inkscape:connector-curvature="0"
         style="fill:none;stroke:#000000" />
      <polygon
         points="250.298,-268.704 250.298,-268.704 255.608,-260.23 257.302,-261.292 251.993,-269.766 "
         id="polygon73"
         style="fill:#000000;stroke:#000000" />
      <polyline
         points="252.105,-263.936 256.342,-266.591 "
         id="polyline75"
         style="fill:none;stroke:#000000" />
      <polygon
         points="391.271,-305.362 391.271,-305.362 386.753,-314.283 384.969,-313.379 389.487,-304.458 "
         id="polygon77"
         style="fill:#000000;stroke:#000000" />
      <polyline
         points="389.904,-310.274 385.444,-308.015 "
         id="polyline79"
         style="fill:none;stroke:#000000" />
      <ellipse
         cx="381.875"
         cy="-306.20801"
         rx="4.00001"
         ry="4.00001"
         id="ellipse81"
         d="m 385.87501,-306.20801 c 0,2.20915 -1.79087,4.00001 -4.00001,4.00001 -2.20914,0 -4.00001,-1.79086 -4.00001,-4.00001 0,-2.20914 1.79087,-4.00001 4.00001,-4.00001 2.20914,0 4.00001,1.79087 4.00001,4.00001 z"
         sodipodi:cx="381.875"
         sodipodi:cy="-306.20801"
         sodipodi:rx="4.00001"
         sodipodi:ry="4.00001"
         style="fill:none;stroke:#000000" />
      <text
         transform="matrix(0.99405395,-0.10888869,0.10888869,0.99405395,0,0)"
         x="341.1001"
         y="-253.18532"
         font-size="14.00"
         id="text83"
         style="font-size:14px;text-anchor:middle;font-family:Linux Libertine">latest</text>
    </g>
    <g
       transform="translate(4,413)"
       id="edge6"
       class="edge">
      <title
         id="title86">MetaDap-&gt;Dap</title>
      <path
         d="m 257.272,-233.395 c 40.96,-8.567 90.409,-19.222 94.728,-21.605 10.047,-5.544 19.634,-12.804 28.419,-20.664"
         id="path88"
         inkscape:connector-curvature="0"
         style="fill:none;stroke:#000000" />
      <polygon
         points="252.279,-237.46 252.279,-237.46 254.324,-227.671 256.281,-228.08 254.237,-237.869 "
         id="polygon90"
         style="fill:#000000;stroke:#000000" />
      <polyline
         points="252.322,-232.361 257.217,-233.383 "
         id="polyline92"
         style="fill:none;stroke:#000000" />
      <polygon
         points="392.695,-280.419 392.695,-280.419 385.812,-287.673 384.361,-286.297 391.244,-279.042 "
         id="polygon94"
         style="fill:#000000;stroke:#000000" />
      <polyline
         points="389.979,-284.734 386.352,-281.293 "
         id="polyline96"
         style="fill:none;stroke:#000000" />
      <ellipse
         cx="383.45001"
         cy="-278.54001"
         rx="4.00001"
         ry="4.00001"
         id="ellipse98"
         d="m 387.45002,-278.54001 c 0,2.20915 -1.79086,4.00001 -4.00001,4.00001 -2.20914,0 -4.00001,-1.79086 -4.00001,-4.00001 0,-2.20914 1.79087,-4.00001 4.00001,-4.00001 2.20915,0 4.00001,1.79087 4.00001,4.00001 z"
         sodipodi:cx="383.45001"
         sodipodi:cy="-278.54001"
         sodipodi:rx="4.00001"
         sodipodi:ry="4.00001"
         style="fill:none;stroke:#000000" />
      <text
         transform="matrix(0.97706828,-0.21292622,0.21292622,0.97706828,0,0)"
         x="352.52597"
         y="-178.21037"
         font-size="14.00"
         id="text100"
         style="font-size:14px;text-anchor:middle;font-family:Linux Libertine">latest_stable</text>
    </g>
    <g
       transform="translate(4,413)"
       id="node7"
       class="node">
      <title
         id="title103">User</title>
      <polygon
         points="403,-79 403,-79 403,-115 457,-115 457,-79 "
         id="polygon105"
         style="fill:#d3d3d3;stroke:#000000" />
      <text
         x="430"
         y="-93.300003"
         font-size="14.00"
         id="text107"
         style="font-size:14px;text-anchor:middle;font-family:Linux Libertine">User</text>
    </g>
    <g
       transform="translate(4,413)"
       id="edge2"
       class="edge">
      <title
         id="title110">MetaDap-&gt;User</title>
      <path
         d="m 268.953,-199.178 c 26.689,10.324 57.156,23.699 83.047,39.178 19.649,11.747 39.592,28.217 54.257,41.371"
         id="path112"
         inkscape:connector-curvature="0"
         style="fill:none;stroke:#000000" />
      <polygon
         points="261.411,-202.004 261.411,-202.004 250.468,-201.299 256.729,-203.758 252.047,-205.513 252.047,-205.513 252.047,-205.513 256.729,-203.758 253.626,-209.727 261.411,-202.004 "
         id="polygon114"
         style="fill:#000000;stroke:#000000" />
      <ellipse
         cx="265.15701"
         cy="-200.60001"
         rx="4.00001"
         ry="4.00001"
         id="ellipse116"
         d="m 269.15702,-200.60001 c 0,2.20915 -1.79086,4.00001 -4.00001,4.00001 -2.20914,0 -4.00001,-1.79086 -4.00001,-4.00001 0,-2.20914 1.79087,-4.00001 4.00001,-4.00001 2.20915,0 4.00001,1.79087 4.00001,4.00001 z"
         sodipodi:cx="265.15701"
         sodipodi:cy="-200.60001"
         sodipodi:rx="4.00001"
         sodipodi:ry="4.00001"
         style="fill:none;stroke:#000000" />
      <polygon
         points="406.151,-111.978 406.151,-111.978 412.864,-119.39 411.382,-120.733 404.669,-113.321 "
         id="polygon118"
         style="fill:#000000;stroke:#000000" />
      <polyline
         points="410.249,-115.013 406.543,-118.37 "
         id="polyline120"
         style="fill:none;stroke:#000000" />
      <text
         transform="matrix(0.91385626,0.40603784,-0.40603784,0.91385626,0,0)"
         x="221.75177"
         y="-296.51797"
         font-size="14.00"
         id="text122"
         style="font-size:14px;text-anchor:middle;font-family:Linux Libertine">owner</text>
    </g>
    <g
       transform="translate(4,413)"
       id="edge3"
       class="edge">
      <title
         id="title125">MetaDap-&gt;User</title>
      <path
         sodipodi:nodetypes="cscc"
         d="m 250.521,-156.02 c 6.082,5.647 23.37289,12.29076 30.96417,15.02 37.19285,13.37168 34.46783,8.992 70.51483,19 10.932,3.035 22.625,6.642 33.512,10.157"
         id="path127"
         inkscape:connector-curvature="0"
         style="fill:none;stroke:#000000" />
      <polygon
         points="244.897,-161.818 244.897,-161.818 234.705,-165.864 241.416,-165.408 237.935,-168.997 237.935,-168.997 237.935,-168.997 241.416,-165.408 241.166,-172.13 244.897,-161.818 "
         id="polygon129"
         style="fill:#000000;stroke:#000000" />
      <ellipse
         cx="247.68201"
         cy="-158.94701"
         rx="4.00001"
         ry="4.00001"
         id="ellipse131"
         d="m 251.68202,-158.94701 c 0,2.20915 -1.79087,4.00001 -4.00001,4.00001 -2.20915,0 -4.00001,-1.79086 -4.00001,-4.00001 0,-2.20914 1.79086,-4.00001 4.00001,-4.00001 2.20914,0 4.00001,1.79087 4.00001,4.00001 z"
         sodipodi:cx="247.68201"
         sodipodi:cy="-158.94701"
         sodipodi:rx="4.00001"
         sodipodi:ry="4.00001"
         style="fill:none;stroke:#000000" />
      <polygon
         points="393.304,-109.267 393.304,-109.267 404.211,-110.4 398.051,-107.697 402.799,-106.128 402.799,-106.128 402.799,-106.128 398.051,-107.697 401.386,-101.855 393.304,-109.267 "
         id="polygon133"
         style="fill:#000000;stroke:#000000" />
      <ellipse
         cx="389.50601"
         cy="-110.522"
         rx="4.00001"
         ry="4.00001"
         id="ellipse135"
         d="m 393.50602,-110.522 c 0,2.20914 -1.79086,4.00001 -4.00001,4.00001 -2.20914,0 -4.00001,-1.79087 -4.00001,-4.00001 0,-2.20915 1.79087,-4.00001 4.00001,-4.00001 2.20915,0 4.00001,1.79086 4.00001,4.00001 z"
         sodipodi:cx="389.50601"
         sodipodi:cy="-110.522"
         sodipodi:rx="4.00001"
         sodipodi:ry="4.00001"
         style="fill:none;stroke:#000000" />
      <text
         transform="matrix(0.95434217,0.29871561,-0.29871561,0.95434217,0,0)"
         x="238.98929"
         y="-225.81247"
         font-size="14.00"
         id="text137"
         style="font-size:14px;text-anchor:middle;font-family:Linux Libertine">comaintainers</text>
    </g>
    <g
       transform="translate(4,413)"
       id="node9"
       class="node">
      <title
         id="title140">TaggableManager</title>
      <polygon
         points="370.5,-202 370.5,-202 370.5,-238 489.5,-238 489.5,-202 "
         id="polygon142"
         style="fill:#d3d3d3;stroke:#000000" />
      <text
         x="430"
         y="-216.3"
         font-size="14.00"
         id="text144"
         style="font-size:14px;text-anchor:middle;font-family:Linux Libertine">TaggableManager</text>
    </g>
    <g
       transform="translate(4,416.2)"
       id="edge12"
       class="edge">
      <title
         id="title147">MetaDap-&gt;TaggableManager</title>
      <path
         d="m 257.215,-221.149 c 4.326,0.055 8.627,0.105 12.785,0.149 31.313,0.329 66.096,0.562 95.125,0.721"
         id="path149"
         inkscape:connector-curvature="0"
         style="fill:none;stroke:#000000" />
      <polygon
         points="253.068,-216.202 255.067,-216.176 255.198,-226.176 253.198,-226.202 253.198,-226.202 "
         id="polygon151"
         style="fill:#000000;stroke:#000000" />
      <polyline
         points="252.133,-221.215 257.132,-221.15 "
         id="polyline153"
         style="fill:none;stroke:#000000" />
      <polygon
         points="369.503,-225.256 367.503,-225.267 367.449,-215.267 369.449,-215.256 369.449,-215.256 "
         id="polygon155"
         style="fill:#000000;stroke:#000000" />
      <polyline
         points="370.476,-220.25 365.476,-220.277 "
         id="polyline157"
         style="fill:none;stroke:#000000" />
      <text
         x="341.9216"
         y="-225.68347"
         font-size="14.00"
         id="text159"
         style="font-size:14px;text-anchor:middle;font-family:Linux Libertine">tags</text>
    </g>
    <g
       transform="translate(4,413)"
       id="node3"
       class="node">
      <title
         id="title162">Author</title>
      <polygon
         points="607.5,-302.5 607.5,-302.5 607.5,-363.5 664.5,-363.5 664.5,-302.5 "
         id="polygon164"
         style="fill:#bfbfbf;stroke:#000000" />
      <text
         x="636"
         y="-348.29999"
         font-size="14.00"
         id="text166"
         style="font-size:14px;text-anchor:middle;font-family:Linux Libertine">Author</text>
      <polyline
         points="607.5,-340.5 664.5,-340.5 "
         id="polyline168"
         style="fill:none;stroke:#000000" />
      <text
         x="615.5"
         y="-325.29999"
         font-size="14.00"
         id="text170"
         style="font-size:14px;text-anchor:start;font-family:Linux Libertine">id</text>
      <text
         x="615.5"
         y="-310.29999"
         font-size="14.00"
         id="text172"
         style="font-size:14px;text-anchor:start;font-family:Linux Libertine">author</text>
    </g>
    <g
       transform="translate(4,413)"
       id="edge7"
       class="edge">
      <title
         id="title175">Dap-&gt;Author</title>
      <path
         d="m 475.626,-333 c 34.624,0 82.322,0 116.496,0"
         id="path177"
         inkscape:connector-curvature="0"
         style="fill:none;stroke:#000000" />
      <polygon
         points="471.333,-338 471.333,-338 471.333,-328 473.333,-328 473.333,-338 "
         id="polygon179"
         style="fill:#000000;stroke:#000000" />
      <polyline
         points="470.333,-333 475.333,-333 "
         id="polyline181"
         style="fill:none;stroke:#000000" />
      <polygon
         points="597.235,-333 597.235,-333 607.235,-337.5 602.235,-333 607.235,-333 607.235,-333 607.235,-333 602.235,-333 607.235,-328.5 597.235,-333 "
         id="polygon183"
         style="fill:#000000;stroke:#000000" />
      <polygon
         points="596.235,-328 596.235,-328 596.236,-338 594.236,-338 594.235,-328 "
         id="polygon185"
         style="fill:#000000;stroke:#000000" />
      <polyline
         points="597.235,-333 592.235,-333 "
         id="polyline187"
         style="fill:none;stroke:#000000" />
      <text
         x="537"
         y="-336.79999"
         font-size="14.00"
         id="text189"
         style="font-size:14px;text-anchor:middle;font-family:Linux Libertine">has</text>
    </g>
    <g
       transform="translate(4,413)"
       id="node4"
       class="node">
      <title
         id="title192">Profile</title>
      <polygon
         points="174,0 174,0 174,-46 228,-46 228,0 "
         id="polygon194"
         style="fill:#bfbfbf;stroke:#000000" />
      <text
         x="201"
         y="-30.799999"
         font-size="14.00"
         id="text196"
         style="font-size:14px;text-anchor:middle;font-family:Linux Libertine">Profile</text>
      <polyline
         points="174,-23 228,-23 "
         id="polyline198"
         style="fill:none;stroke:#000000" />
      <text
         x="182"
         y="-7.8000002"
         font-size="14.00"
         id="text200"
         style="font-size:14px;text-anchor:start;font-family:Linux Libertine">id</text>
    </g>
    <g
       transform="translate(4,413)"
       id="edge1"
       class="edge">
      <title
         id="title203">Profile-&gt;User</title>
      <path
         d="M 233.296,-26.9828 C 264.164,-31.5314 312.345,-40.3104 352,-55 c 15.908,-5.8929 32.553,-14.6109 46.28,-22.5791"
         id="path205"
         inkscape:connector-curvature="0"
         style="fill:none;stroke:#000000" />
      <polygon
         points="228.393,-31.3271 228.393,-31.3271 229.822,-21.4296 231.801,-21.7153 230.373,-31.6128 "
         id="polygon207"
         style="fill:#000000;stroke:#000000" />
      <polyline
         points="228.118,-26.2355 233.066,-26.9498 "
         id="polyline209"
         style="fill:none;stroke:#000000" />
      <polygon
         points="404.491,-75.4304 404.491,-75.4304 399.422,-84.0508 397.698,-83.0371 402.767,-74.4167 "
         id="polygon211"
         style="fill:#000000;stroke:#000000" />
      <polyline
         points="402.818,-80.2475 398.508,-77.7132 "
         id="polyline213"
         style="fill:none;stroke:#000000" />
      <text
         transform="matrix(0.94034002,-0.34023616,0.34023616,0.94034002,0,0)"
         x="330.67065"
         y="63.380901"
         font-size="14.00"
         id="text215"
         style="font-size:14px;text-anchor:middle;font-family:Linux Libertine">is</text>
    </g>
    <g
       transform="translate(4,413)"
       id="node8"
       class="node">
      <title
         id="title218">UserSocialAuth</title>
      <polygon
         points="584,-40 584,-40 584,-76 688,-76 688,-40 "
         id="polygon220"
         style="fill:#d3d3d3;stroke:#000000" />
      <text
         x="636"
         y="-54.299999"
         font-size="14.00"
         id="text222"
         style="font-size:14px;text-anchor:middle;font-family:Linux Libertine">UserSocialAuth</text>
    </g>
    <g
       transform="translate(4.6626059,423.05212)"
       id="edge10"
       class="edge">
      <title
         id="title225">Profile-&gt;UserSocialAuth</title>
      <path
         d="M 241.373,-26.1362 C 271.628,-28.5494 314.458,-31.9728 352,-35 c 72.996,-5.8861 156.578,-12.6865 213.876,-17.3576"
         id="path227"
         inkscape:connector-curvature="0"
         style="fill:none;stroke:#000000" />
      <polygon
         points="228.615,-30.1348 228.615,-30.1348 229.409,-20.1665 231.403,-20.3254 230.608,-30.2938 "
         id="polygon229"
         style="fill:#000000;stroke:#000000" />
      <polyline
         points="228.015,-25.0712 232.999,-25.4686 "
         id="polyline231"
         style="fill:none;stroke:#000000" />
      <ellipse
         cx="236.987"
         cy="-25.786501"
         rx="4"
         ry="4"
         id="ellipse233"
         d="m 240.987,-25.786501 c 0,2.209139 -1.79086,4 -4,4 -2.20914,0 -4,-1.790861 -4,-4 0,-2.209139 1.79086,-4 4,-4 2.20914,0 4,1.790861 4,4 z"
         sodipodi:cx="236.987"
         sodipodi:cy="-25.786501"
         sodipodi:rx="4"
         sodipodi:ry="4"
         style="fill:none;stroke:#000000" />
      <polygon
         points="583.877,-53.8256 583.877,-53.8256 578.893,-53.4192 584.243,-49.3405 573.91,-53.0127 573.91,-53.0127 573.91,-53.0127 583.511,-58.3107 578.893,-53.4192 583.877,-53.8256 "
         id="polygon235"
         style="fill:#000000;stroke:#000000" />
      <ellipse
         cx="569.92297"
         cy="-52.687599"
         rx="4"
         ry="4"
         id="ellipse237"
         d="m 573.92297,-52.687599 c 0,2.209139 -1.79086,4 -4,4 -2.20914,0 -4,-1.790861 -4,-4 0,-2.209139 1.79086,-4 4,-4 2.20914,0 4,1.790861 4,4 z"
         sodipodi:cx="569.92297"
         sodipodi:cy="-52.687599"
         sodipodi:rx="4"
         sodipodi:ry="4"
         style="fill:none;stroke:#000000" />
      <text
         transform="matrix(0.99851622,-0.05445503,0.05445503,0.99851622,0,0)"
         x="431.96054"
         y="-22.889023"
         font-size="14.00"
         id="text239"
         style="font-size:14px;text-anchor:middle;font-family:Linux Libertine">syncs</text>
    </g>
    <g
       transform="translate(4,413)"
       id="node5"
       class="node">
      <title
         id="title242">Rank</title>
      <polygon
         points="5,-70.5 5,-70.5 5,-131.5 59,-131.5 59,-70.5 "
         id="polygon244"
         style="fill:#bfbfbf;stroke:#000000" />
      <text
         x="32"
         y="-116.3"
         font-size="14.00"
         id="text246"
         style="font-size:14px;text-anchor:middle;font-family:Linux Libertine">Rank</text>
      <polyline
         points="5,-108.5 59,-108.5 "
         id="polyline248"
         style="fill:none;stroke:#000000" />
      <text
         x="13"
         y="-93.300003"
         font-size="14.00"
         id="text250"
         style="font-size:14px;text-anchor:start;font-family:Linux Libertine">id</text>
      <text
         x="13"
         y="-78.300003"
         font-size="14.00"
         id="text252"
         style="font-size:14px;text-anchor:start;font-family:Linux Libertine">rank</text>
    </g>
    <g
       transform="translate(4,413)"
       id="edge8"
       class="edge">
      <title
         id="title255">Rank-&gt;MetaDap</title>
      <path
         d="m 73.9062,-130.639 c 21.5868,-15.64 48.3608,-35.039 71.6768,-51.933"
         id="path257"
         inkscape:connector-curvature="0"
         style="fill:none;stroke:#000000" />
      <polygon
         points="67.1916,-125.774 67.1916,-125.774 61.734,-116.262 63.1427,-122.84 59.0938,-119.906 59.0938,-119.906 59.0938,-119.906 63.1427,-122.84 56.4535,-123.55 67.1916,-125.774 "
         id="polygon259"
         style="fill:#000000;stroke:#000000" />
      <ellipse
         cx="70.430702"
         cy="-128.12"
         rx="4.00001"
         ry="4.00001"
         id="ellipse261"
         d="m 74.430712,-128.12 c 0,2.20915 -1.790865,4.00001 -4.00001,4.00001 -2.209144,0 -4.00001,-1.79086 -4.00001,-4.00001 0,-2.20914 1.790866,-4.00001 4.00001,-4.00001 2.209145,0 4.00001,1.79087 4.00001,4.00001 z"
         sodipodi:cx="70.430702"
         sodipodi:cy="-128.12"
         sodipodi:rx="4.00001"
         sodipodi:ry="4.00001"
         style="fill:none;stroke:#000000" />
      <polygon
         points="152.018,-181.06 152.018,-181.06 146.151,-189.158 144.531,-187.985 150.399,-179.887 "
         id="polygon263"
         style="fill:#000000;stroke:#000000" />
      <polyline
         points="149.894,-185.696 145.846,-182.762 "
         id="polyline265"
         style="fill:none;stroke:#000000" />
      <text
         transform="matrix(0.78369694,-0.62114339,0.62114339,0.78369694,0,0)"
         x="162.40276"
         y="-59.785439"
         font-size="14.00"
         id="text267"
         style="font-size:14px;text-anchor:middle;font-family:Linux Libertine">ranked</text>
    </g>
    <g
       transform="translate(4,422.6)"
       id="edge9"
       class="edge">
      <title
         id="title270">Rank-&gt;User</title>
      <path
         d="M 77.1599,-99.6379 C 99.0646,-99.0208 125.923,-98.3518 150,-98 c 89.903,1.3136 196.118,1.248 247.721,1.1126"
         id="path272"
         inkscape:connector-curvature="0"
         style="fill:none;stroke:#000000" />
      <polygon
         points="59.0197,-100.168 64.0176,-100.022 59.1513,-104.667 69.0154,-99.876 69.0154,-99.876 69.0154,-99.876 58.8881,-95.6704 64.0176,-100.022 59.0197,-100.168 59.0197,-100.168 "
         id="polygon274"
         style="fill:#000000;stroke:#000000" />
      <ellipse
         cx="73.013702"
         cy="-99.759102"
         rx="4"
         ry="4"
         id="ellipse276"
         d="m 77.013702,-99.759102 c 0,2.209139 -1.790861,4 -4,4 -2.209139,0 -4,-1.790861 -4,-4 0,-2.209138 1.790861,-3.999998 4,-3.999998 2.209139,0 4,1.79086 4,3.999998 z"
         sodipodi:cx="73.013702"
         sodipodi:cy="-99.759102"
         sodipodi:rx="4"
         sodipodi:ry="4"
         style="fill:none;stroke:#000000" />
      <polygon
         points="401.856,-91.8987 401.828,-101.899 399.828,-101.893 399.856,-91.8932 401.856,-91.8987 "
         id="polygon278"
         style="fill:#000000;stroke:#000000" />
      <polyline
         points="402.842,-96.9015 397.842,-96.8876 "
         id="polyline280"
         style="fill:none;stroke:#000000" />
      <text
         x="201"
         y="-101.8"
         font-size="14.00"
         id="text282"
         style="font-size:14px;text-anchor:middle;font-family:Linux Libertine">ranker</text>
    </g>
    <g
       transform="translate(4,413)"
       id="node6"
       class="node">
      <title
         id="title285">Report</title>
      <polygon
         points="0,-169 0,-169 0,-275 64,-275 64,-169 "
         id="polygon287"
         style="fill:#bfbfbf;stroke:#000000" />
      <text
         x="32"
         y="-259.79999"
         font-size="14.00"
         id="text289"
         style="font-size:14px;text-anchor:middle;font-family:Linux Libertine">Report</text>
      <polyline
         points="0,-252 64,-252 "
         id="polyline291"
         style="fill:none;stroke:#000000" />
      <text
         x="8"
         y="-236.8"
         font-size="14.00"
         id="text293"
         style="font-size:14px;text-anchor:start;font-family:Linux Libertine">id</text>
      <text
         x="8"
         y="-221.8"
         font-size="14.00"
         id="text295"
         style="font-size:14px;text-anchor:start;font-family:Linux Libertine">problem</text>
      <text
         x="8"
         y="-206.8"
         font-size="14.00"
         id="text297"
         style="font-size:14px;text-anchor:start;font-family:Linux Libertine">email</text>
      <text
         x="8"
         y="-191.8"
         font-size="14.00"
         id="text299"
         style="font-size:14px;text-anchor:start;font-family:Linux Libertine">message</text>
      <text
         x="8"
         y="-176.8"
         font-size="14.00"
         id="text301"
         style="font-size:14px;text-anchor:start;font-family:Linux Libertine">solved</text>
    </g>
    <g
       transform="translate(4,413)"
       id="edge13"
       class="edge">
      <title
         id="title304">Report-&gt;MetaDap</title>
      <path
         d="m 82.3405,-222 c 19.6005,0 42.2365,0 62.3865,0"
         id="path306"
         inkscape:connector-curvature="0"
         style="fill:none;stroke:#000000" />
      <polygon
         points="74.02,-222 74.02,-222 64.0201,-217.5 69.02,-222 64.02,-222 64.02,-222 64.02,-222 69.02,-222 64.02,-226.5 74.02,-222 "
         id="polygon308"
         style="fill:#000000;stroke:#000000" />
      <ellipse
         cx="78.019997"
         cy="-222"
         rx="4"
         ry="4"
         id="ellipse310"
         d="m 82.019997,-222 c 0,2.20914 -1.790861,4 -4,4 -2.209139,0 -4,-1.79086 -4,-4 0,-2.20914 1.790861,-4 4,-4 2.209139,0 4,1.79086 4,4 z"
         sodipodi:cx="78.019997"
         sodipodi:cy="-222"
         sodipodi:rx="4"
         sodipodi:ry="4"
         style="fill:none;stroke:#000000" />
      <polygon
         points="148.793,-217 148.793,-217 148.793,-227 146.793,-227 146.793,-217 "
         id="polygon312"
         style="fill:#000000;stroke:#000000" />
      <polyline
         points="149.793,-222 144.793,-222 "
         id="polyline314"
         style="fill:none;stroke:#000000" />
      <text
         x="111.85911"
         y="-227.12521"
         font-size="14.00"
         id="text316"
         style="font-size:14px;text-anchor:middle;font-family:Linux Libertine">reported</text>
    </g>
    <g
       transform="translate(4,413)"
       id="edge15"
       class="edge">
      <title
         id="title319">Report-&gt;Dap</title>
      <path
         d="M 79.2105,-256.02 C 124.985,-287.443 198.419,-331.905 270,-350 c 33.21,-8.395 71.345,-4.748 101.942,1.283"
         id="path321"
         inkscape:connector-curvature="0"
         style="fill:none;stroke:#000000" />
      <polygon
         points="64.2213,-245.513 64.2213,-245.513 64.2213,-245.513 68.3157,-248.383 61.6384,-249.198 72.41,-251.253 72.41,-251.253 72.41,-251.253 66.8042,-241.829 68.3157,-248.383 "
         id="polygon323"
         style="fill:#000000;stroke:#000000" />
      <ellipse
         cx="75.685501"
         cy="-253.549"
         rx="4.00001"
         ry="4.00001"
         id="ellipse325"
         d="m 79.685511,-253.549 c 0,2.20915 -1.790865,4.00001 -4.00001,4.00001 -2.209144,0 -4.00001,-1.79086 -4.00001,-4.00001 0,-2.20914 1.790866,-4.00001 4.00001,-4.00001 2.209145,0 4.00001,1.79087 4.00001,4.00001 z"
         sodipodi:cx="75.685501"
         sodipodi:cy="-253.549"
         sodipodi:rx="4.00001"
         sodipodi:ry="4.00001"
         style="fill:none;stroke:#000000" />
      <polygon
         points="389.907,-344.74 389.907,-344.74 389.907,-344.74 385.025,-345.821 388.934,-340.346 380.143,-346.901 380.143,-346.901 380.143,-346.901 390.879,-349.134 385.025,-345.821 "
         id="polygon327"
         style="fill:#000000;stroke:#000000" />
      <ellipse
         cx="376.23801"
         cy="-347.76599"
         rx="4"
         ry="4"
         id="ellipse329"
         d="m 380.23801,-347.76599 c 0,2.20914 -1.79086,4 -4,4 -2.20914,0 -4,-1.79086 -4,-4 0,-2.20914 1.79086,-4 4,-4 2.20914,0 4,1.79086 4,4 z"
         sodipodi:cx="376.23801"
         sodipodi:cy="-347.76599"
         sodipodi:rx="4"
         sodipodi:ry="4"
         style="fill:none;stroke:#000000" />
      <text
         transform="matrix(0.87372408,-0.48642186,0.48642186,0.87372408,0,0)"
         x="296.47046"
         y="-194.85666"
         font-size="14.00"
         id="text331"
         style="font-size:14px;text-anchor:middle;font-family:Linux Libertine">versions</text>
    </g>
    <g
       transform="translate(4,413)"
       id="edge14"
       class="edge">
      <title
         id="title334">Report-&gt;User</title>
      <path
         d="m 78.6693,-185.012 c 20.6573,14.945 46.0697,30.997 71.3307,41.012 81.243,32.209 184.324,42.35 239.644,45.5393"
         id="path336"
         inkscape:connector-curvature="0"
         style="fill:none;stroke:#000000" />
      <polygon
         points="72.2118,-189.853 72.2118,-189.853 61.5113,-192.251 68.2111,-192.853 64.2105,-195.852 64.2105,-195.852 64.2105,-195.852 68.2111,-192.853 66.9098,-199.452 72.2118,-189.853 "
         id="polygon338"
         style="fill:#000000;stroke:#000000" />
      <ellipse
         cx="75.4123"
         cy="-187.45399"
         rx="4.00001"
         ry="4.00001"
         id="ellipse340"
         d="m 79.41231,-187.45399 c 0,2.20914 -1.790865,4.00001 -4.00001,4.00001 -2.209144,0 -4.00001,-1.79087 -4.00001,-4.00001 0,-2.20915 1.790866,-4.00001 4.00001,-4.00001 2.209145,0 4.00001,1.79086 4.00001,4.00001 z"
         sodipodi:cx="75.4123"
         sodipodi:cy="-187.45399"
         sodipodi:rx="4.00001"
         sodipodi:ry="4.00001"
         style="fill:none;stroke:#000000" />
      <polygon
         points="401.381,-92.8485 401.381,-92.8485 401.897,-102.835 399.899,-102.938 399.384,-92.9516 "
         id="polygon342"
         style="fill:#000000;stroke:#000000" />
      <polyline
         points="402.638,-97.7904 397.644,-98.048 "
         id="polyline344"
         style="fill:none;stroke:#000000" />
      <ellipse
         cx="393.64999"
         cy="-98.254097"
         rx="4"
         ry="4"
         id="ellipse346"
         d="m 397.64999,-98.254097 c 0,2.209139 -1.79086,4 -4,4 -2.20914,0 -4,-1.790861 -4,-4 0,-2.209143 1.79086,-4.000003 4,-4.000003 2.20914,0 4,1.79086 4,4.000003 z"
         sodipodi:cx="393.64999"
         sodipodi:cy="-98.254097"
         sodipodi:rx="4"
         sodipodi:ry="4"
         style="fill:none;stroke:#000000" />
      <text
         transform="matrix(0.96591839,0.25884679,-0.25884679,0.96591839,0,0)"
         x="155.67303"
         y="-182.95177"
         font-size="14.00"
         id="text348"
         style="font-size:14px;text-anchor:middle;font-family:Linux Libertine">reporter</text>
    </g>
    <g
       transform="translate(4,413)"
       id="edge11"
       class="edge">
      <title
         id="title351">User-&gt;UserSocialAuth</title>
      <path
         d="m 462.274,-91.0211 c 28.282,5.4068 70.852,13.5452 106.653,20.3894"
         id="path353"
         inkscape:connector-curvature="0"
         style="fill:none;stroke:#000000" />
      <polygon
         points="459.173,-96.7045 459.173,-96.7045 457.295,-86.8824 459.259,-86.5068 461.137,-96.329 "
         id="polygon355"
         style="fill:#000000;stroke:#000000" />
      <polyline
         points="457.252,-91.9813 462.163,-91.0423 "
         id="polyline357"
         style="fill:none;stroke:#000000" />
      <polygon
         points="573.972,-69.6672 573.972,-69.6672 584.639,-72.2094 578.883,-68.7283 583.794,-67.7894 583.794,-67.7894 583.794,-67.7894 578.883,-68.7283 582.949,-63.3695 573.972,-69.6672 "
         id="polygon359"
         style="fill:#000000;stroke:#000000" />
      <polygon
         points="572.05,-64.944 572.05,-64.944 573.928,-74.7661 571.964,-75.1417 570.086,-65.3195 "
         id="polygon361"
         style="fill:#000000;stroke:#000000" />
      <polyline
         points="573.972,-69.6672 569.061,-70.6062 "
         id="polyline363"
         style="fill:none;stroke:#000000" />
      <text
         transform="matrix(0.97741838,0.21131331,-0.21131331,0.97741838,0,0)"
         x="495.22354"
         y="-193.31024"
         font-size="14.00"
         id="text365"
         style="font-size:14px;text-anchor:middle;font-family:Linux Libertine">associated</text>
    </g>
  </g>
</svg>
